<?xml version="1.0" encoding="utf-8"?>
<!-- Generator: Adobe Illustrator 23.1.1, SVG Export Plug-In . SVG Version: 6.00 Build 0)  -->
<svg version="1.1" xmlns="http://www.w3.org/2000/svg" xmlns:xlink="http://www.w3.org/1999/xlink" x="0px" y="0px" width="252px"
	 height="144px" viewBox="0 0 252 144" style="enable-background:new 0 0 252 144;" xml:space="preserve">
<style type="text/css">
	.st0{fill:#EAE7DB;}
	.st1{clip-path:url(#SVGID_2_);fill:#006735;}
	.st2{clip-path:url(#SVGID_4_);fill:#006735;}
	.st3{clip-path:url(#SVGID_6_);fill:#006735;}
	.st4{clip-path:url(#SVGID_8_);fill:#006735;}
	.st5{clip-path:url(#SVGID_10_);fill:#006735;}
	.st6{clip-path:url(#SVGID_12_);fill:#006735;}
	.st7{clip-path:url(#SVGID_14_);fill:#006735;}
</style>
<g id="Layer_1">
	<rect class="st0" width="252" height="144"/>
</g>
<g id="Layer_2">
	<g>
		<g>
			<defs>
				<path id="SVGID_1_" d="M161.1,97.5c0,1.9-1.6,3.5-3.5,3.5H94.4c-1.9,0-3.5-1.6-3.5-3.5v-43c0-0.5,0.4-0.9,0.9-0.9h68.5
					c0.5,0,0.9,0.4,0.9,0.9V97.5z M93,43.3c0.6-1.3,1.8-2.1,3.2-2.1c1.2,0,2.4,0.7,3,1.8c0.3,0.5,0.5,1.1,0.5,1.8
					c0,0.6-0.2,1.2-0.5,1.8c-0.6,1.1-1.7,1.8-3,1.8c-1.2,0-2.4-0.7-3-1.8c-0.3-0.5-0.5-1.1-0.5-1.8C92.6,44.3,92.7,43.8,93,43.3z
					 M105.5,43c0.6-1.1,1.7-1.8,3-1.8c1.2,0,2.4,0.7,3,1.8c0.3,0.5,0.5,1.1,0.5,1.8c0,0.6-0.2,1.2-0.5,1.8c-0.6,1.1-1.7,1.8-3,1.8
					c-1.2,0-2.4-0.7-3-1.8c-0.3-0.5-0.5-1.1-0.5-1.8C104.9,44.2,105.1,43.5,105.5,43z M117.8,43c0.6-1.1,1.7-1.8,3-1.8
					c1.2,0,2.4,0.7,3,1.8c0.3,0.5,0.5,1.1,0.5,1.8c0,0.6-0.2,1.2-0.5,1.8c-0.6,1.1-1.7,1.8-3,1.8c-1.2,0-2.4-0.7-3-1.8
					c-0.3-0.5-0.5-1.1-0.5-1.8C117.2,44.2,117.4,43.5,117.8,43z M168.1,46.5c0-5.8-4.7-10.5-10.5-10.5H94.4
					c-5.8,0-10.5,4.7-10.5,10.5v50.9c0,5.8,4.7,10.5,10.5,10.5h63.2c5.8,0,10.5-4.7,10.5-10.5V46.5z"/>
			</defs>
			<use xlink:href="#SVGID_1_"  style="overflow:visible;fill:#006735;"/>
			<clipPath id="SVGID_2_">
				<use xlink:href="#SVGID_1_"  style="overflow:visible;"/>
			</clipPath>
			<rect x="66.3" y="18.4" class="st1" width="119.4" height="107.1"/>
		</g>
		<g>
			<defs>
				<path id="SVGID_3_" d="M133.2,62.1c0.1-0.2,0.2-0.5,0.1-0.7c-0.1-0.3-0.3-0.5-0.5-0.6c-2.1-0.9-4.3-1.3-6.6-1.3
					c-8.3,0-15.4,5.8-17.1,13.9c-0.1,0.3,0,0.5,0.2,0.7c0.2,0.2,0.4,0.3,0.7,0.3h14.4c0.3,0,0.6-0.1,0.7-0.4L133.2,62.1z"/>
			</defs>
			<use xlink:href="#SVGID_3_"  style="overflow:visible;fill:#006735;"/>
			<clipPath id="SVGID_4_">
				<use xlink:href="#SVGID_3_"  style="overflow:visible;"/>
			</clipPath>
			<rect x="91.5" y="41.9" class="st2" width="59.4" height="50"/>
		</g>
		<g>
			<defs>
				<path id="SVGID_5_" d="M109.9,79.6c-0.3,0-0.5,0.1-0.7,0.3c-0.2,0.2-0.2,0.5-0.2,0.7c1.7,8.1,8.8,13.9,17.1,13.9
					c2.8,0,5.6-0.7,8.1-2.1c0.2-0.1,0.4-0.3,0.5-0.6c0.1-0.3,0-0.5-0.2-0.7l-9.4-11.2c-0.2-0.2-0.4-0.3-0.7-0.3H109.9z"/>
			</defs>
			<use xlink:href="#SVGID_5_"  style="overflow:visible;fill:#006735;"/>
			<clipPath id="SVGID_6_">
				<use xlink:href="#SVGID_5_"  style="overflow:visible;"/>
			</clipPath>
			<rect x="91.5" y="62" class="st3" width="60.8" height="50"/>
		</g>
		<g>
			<defs>
				<path id="SVGID_7_" d="M138.6,87.8c0.2,0.2,0.4,0.3,0.7,0.3c0.3,0,0.5-0.1,0.7-0.3c5.4-6.8,4.9-16.5-1.1-22.8
					c-0.2-0.2-0.4-0.3-0.7-0.3c-0.3,0-0.5,0.2-0.7,0.4l-7.7,11.2c-0.2,0.3-0.2,0.8,0,1.1L138.6,87.8z"/>
			</defs>
			<use xlink:href="#SVGID_7_"  style="overflow:visible;fill:#006735;"/>
			<clipPath id="SVGID_8_">
				<use xlink:href="#SVGID_7_"  style="overflow:visible;"/>
			</clipPath>
			<rect x="112.1" y="47.1" class="st4" width="49.2" height="58.5"/>
		</g>
	</g>
</g>
</svg>
