<?xml version="1.0" encoding="utf-8"?>
<!-- Generator: Adobe Illustrator 23.1.1, SVG Export Plug-In . SVG Version: 6.00 Build 0)  -->
<svg version="1.1" xmlns="http://www.w3.org/2000/svg" xmlns:xlink="http://www.w3.org/1999/xlink" x="0px" y="0px" width="252px"
	 height="144px" viewBox="0 0 252 144" style="enable-background:new 0 0 252 144;" xml:space="preserve">
<style type="text/css">
	.st0{fill:#EAE7DB;}
	.st1{clip-path:url(#SVGID_2_);fill:#006735;}
	.st2{clip-path:url(#SVGID_4_);fill:#006735;}
	.st3{clip-path:url(#SVGID_6_);fill:#006735;}
	.st4{clip-path:url(#SVGID_8_);fill:#006735;}
	.st5{clip-path:url(#SVGID_10_);fill:#006735;}
	.st6{clip-path:url(#SVGID_12_);fill:#006735;}
	.st7{clip-path:url(#SVGID_14_);fill:#006735;}
</style>
<g id="Layer_1">
	<rect class="st0" width="252" height="144"/>
</g>
<g id="Layer_2">
	<g>
		<g>
			<defs>
				<path id="SVGID_9_" d="M161.1,97.5c0,1.9-1.6,3.5-3.5,3.5H94.4c-1.9,0-3.5-1.6-3.5-3.5v-43c0-0.5,0.4-0.9,0.9-0.9h68.5
					c0.5,0,0.9,0.4,0.9,0.9V97.5z M93,43.3c0.6-1.3,1.8-2.1,3.2-2.1c1.2,0,2.4,0.7,3,1.8c0.3,0.5,0.5,1.1,0.5,1.8
					c0,0.6-0.2,1.2-0.5,1.8c-0.6,1.1-1.7,1.8-3,1.8c-1.2,0-2.4-0.7-3-1.8c-0.3-0.5-0.5-1.1-0.5-1.8C92.6,44.3,92.7,43.8,93,43.3z
					 M105.5,43c0.6-1.1,1.7-1.8,3-1.8c1.2,0,2.4,0.7,3,1.8c0.3,0.5,0.5,1.1,0.5,1.8c0,0.6-0.2,1.2-0.5,1.8c-0.6,1.1-1.7,1.8-3,1.8
					c-1.2,0-2.4-0.7-3-1.8c-0.3-0.5-0.5-1.1-0.5-1.8C104.9,44.2,105.1,43.5,105.5,43z M117.8,43c0.6-1.1,1.7-1.8,3-1.8
					c1.2,0,2.4,0.7,3,1.8c0.3,0.5,0.5,1.1,0.5,1.8c0,0.6-0.2,1.2-0.5,1.8c-0.6,1.1-1.7,1.8-3,1.8c-1.2,0-2.4-0.7-3-1.8
					c-0.3-0.5-0.5-1.1-0.5-1.8C117.2,44.2,117.4,43.5,117.8,43z M168.1,46.5c0-5.8-4.7-10.5-10.5-10.5H94.4
					c-5.8,0-10.5,4.7-10.5,10.5v50.9c0,5.8,4.7,10.5,10.5,10.5h63.2c5.8,0,10.5-4.7,10.5-10.5V46.5z"/>
			</defs>
			<use xlink:href="#SVGID_9_"  style="overflow:visible;fill:#006735;"/>
			<clipPath id="SVGID_2_">
				<use xlink:href="#SVGID_9_"  style="overflow:visible;"/>
			</clipPath>
			<rect x="66.3" y="18.4" class="st1" width="119.4" height="107.1"/>
		</g>
		<g>
			<defs>
				<path id="SVGID_11_" d="M126.2,66.4c8.2,0,15.6,6.2,19.3,9.9c0.3,0.3,0.3,0.9,0,1.2c-3.7,3.7-11.1,9.9-19.3,9.9
					s-15.6-6.2-19.3-9.9c-0.3-0.3-0.3-0.9,0-1.2C110.6,72.6,118,66.4,126.2,66.4z M126.2,94.5c15.1,0,26.9-14.8,27.3-15.4
					c1-1.3,1-3.1,0-4.3c-0.5-0.6-12.2-15.4-27.3-15.4S99.3,74.2,98.8,74.8c-1,1.3-1,3.1,0,4.3C99.3,79.8,111.1,94.5,126.2,94.5z"/>
			</defs>
			<use xlink:href="#SVGID_11_"  style="overflow:visible;fill:#006735;"/>
			<clipPath id="SVGID_4_">
				<use xlink:href="#SVGID_11_"  style="overflow:visible;"/>
			</clipPath>
			<rect x="80.5" y="41.9" class="st2" width="91.3" height="70.2"/>
		</g>
		<g>
			<defs>
				<circle id="SVGID_13_" cx="126.2" cy="77" r="7"/>
			</defs>
			<use xlink:href="#SVGID_13_"  style="overflow:visible;fill:#006735;"/>
			<clipPath id="SVGID_6_">
				<use xlink:href="#SVGID_13_"  style="overflow:visible;"/>
			</clipPath>
			<rect x="101.6" y="52.4" class="st3" width="49.2" height="49.2"/>
		</g>
	</g>
</g>
</svg>
