<?xml version="1.0" encoding="utf-8"?>
<!-- Generator: Adobe Illustrator 23.1.1, SVG Export Plug-In . SVG Version: 6.00 Build 0)  -->
<svg version="1.1" id="Layer_1" xmlns="http://www.w3.org/2000/svg" xmlns:xlink="http://www.w3.org/1999/xlink" x="0px" y="0px"
	 width="90px" height="90px" viewBox="0 0 90 90" style="enable-background:new 0 0 90 90;" xml:space="preserve">
<style type="text/css">
	.st0{fill:#006735;}
	.st1{clip-path:url(#SVGID_2_);fill:#006735;}
	.st2{clip-path:url(#SVGID_4_);fill:#006735;}
</style>
<g>
	<path class="st0" d="M45,3c23.2,0,42,18.8,42,42S68.2,87,45,87S3,68.2,3,45S21.8,3,45,3 M45,0C20.1,0,0,20.1,0,45s20.1,45,45,45
		s45-20.1,45-45S69.9,0,45,0L45,0z"/>
</g>
<g>
	<g>
		<defs>
			<path id="SVGID_1_" d="M67.4,47.8h-3.9c-0.5,0-1-0.4-1-1v-1c0-0.5,0.4-1,1-1h2.9c0.3,0,0.7-0.2,0.8-0.5c0.2-0.3,0.2-0.7,0-1
				l-2.4-4.3c-0.1-0.2-0.1-0.5,0-0.7c0.1-0.2,0.4-0.4,0.6-0.4c0.4,0,0.7-0.2,0.9-0.5c0.2-0.3,0.2-0.7,0-1l-4.9-7.8
				c-0.2-0.3-0.5-0.4-0.8-0.4c-0.3,0-0.6,0.2-0.8,0.4l-4.9,7.8c-0.2,0.3-0.2,0.7,0,1c0.2,0.3,0.5,0.5,0.9,0.5c0.3,0,0.5,0.1,0.6,0.4
				c0.1,0.2,0.1,0.5,0,0.7l-2.4,4.3c-0.2,0.3-0.2,0.7,0,1c0.2,0.3,0.5,0.5,0.8,0.5h2.9c0.5,0,1,0.4,1,1v1.6c0,0.4-0.3,0.8-0.7,0.9
				c-3.8,1.1-7.4,3-10.4,5.5c-0.1,0.1-0.2,0.3-0.2,0.5c0,0.2,0.2,0.3,0.3,0.4c4.3,1.3,8.1,3.8,11.1,7.1c0.6,0.7,0.9,1.6,0.9,2.5
				c0,0.5,0.4,1,1,1h6.8c0.5,0,1-0.4,1-1V48.8C68.4,48.3,68,47.8,67.4,47.8z"/>
		</defs>
		<use xlink:href="#SVGID_1_"  style="overflow:visible;fill:#006735;"/>
		<clipPath id="SVGID_2_">
			<use xlink:href="#SVGID_1_"  style="overflow:visible;"/>
		</clipPath>
		<rect x="37.6" y="18.6" class="st1" width="40.6" height="56.5"/>
	</g>
	<g>
		<defs>
			<path id="SVGID_3_" d="M38.1,55.8c-0.5,0-0.9-0.5-0.9-1v-3.1c0-0.5,0.4-1,1-1h5.9c0.7,0,1.4-0.4,1.7-1c0.3-0.6,0.3-1.4-0.1-2
				l-4-5.7c-0.1-0.2-0.2-0.4,0-0.7c0.1-0.2,0.3-0.3,0.6-0.3c0.7,0,1.4-0.4,1.7-1c0.3-0.6,0.3-1.4-0.1-2l-4.4-6.9
				c-0.3-0.4-0.2-0.9,0.2-1.3c0.7-0.6,0.9-1.7,0.4-2.5l-5-8.3c-0.2-0.3-0.5-0.4-0.8-0.4c-0.3,0-0.6,0.2-0.8,0.4l-5,8.3
				c-0.5,0.8-0.3,1.9,0.4,2.5c0.4,0.3,0.5,0.9,0.2,1.3L24.7,38c-0.4,0.6-0.4,1.4-0.1,2c0.3,0.6,1,1,1.7,1c0.2,0,0.5,0.1,0.6,0.3
				c0.1,0.2,0.1,0.5,0,0.7l-4,5.7c-0.4,0.6-0.5,1.4-0.1,2c0.3,0.6,1,1.1,1.7,1h5.9c0.5,0,1,0.4,1,1v3.4c0,0.5-0.3,0.9-0.8,1
				c-3.1,0.6-6,1.8-8.5,3.6c-0.3,0.2-0.4,0.5-0.4,0.8v3.9c0,0.5,0.4,1,1,1h33.2c0.4,0,0.7-0.2,0.9-0.6c0.2-0.3,0.1-0.7-0.1-1
				C51.9,58.3,43.8,56.3,38.1,55.8z"/>
		</defs>
		<use xlink:href="#SVGID_3_"  style="overflow:visible;fill:#006735;"/>
		<clipPath id="SVGID_4_">
			<use xlink:href="#SVGID_3_"  style="overflow:visible;"/>
		</clipPath>
		<rect x="11.8" y="8.9" class="st2" width="54.6" height="66.3"/>
	</g>
</g>
</svg>
