<?xml version="1.0" encoding="utf-8"?>
<!-- Generator: Adobe Illustrator 23.1.1, SVG Export Plug-In . SVG Version: 6.00 Build 0)  -->
<svg version="1.1" xmlns="http://www.w3.org/2000/svg" xmlns:xlink="http://www.w3.org/1999/xlink" x="0px" y="0px" width="252px"
	 height="144px" viewBox="0 0 252 144" style="enable-background:new 0 0 252 144;" xml:space="preserve">
<style type="text/css">
	.st0{fill:#EAE7DB;}
	.st1{fill:#006735;}
	.st2{display:none;}
	.st3{display:inline;}
	.st4{clip-path:url(#SVGID_2_);fill:#006735;}
	.st5{clip-path:url(#SVGID_4_);fill:#006735;}
	.st6{clip-path:url(#SVGID_6_);fill:#006735;}
	.st7{clip-path:url(#SVGID_8_);fill:#006735;}
	.st8{clip-path:url(#SVGID_10_);fill:#006735;}
	.st9{clip-path:url(#SVGID_12_);fill:#006735;}
	.st10{clip-path:url(#SVGID_14_);fill:#006735;}
	.st11{clip-path:url(#SVGID_16_);fill:#EAE7DB;}
	.st12{clip-path:url(#SVGID_18_);fill:#EAE7DB;}
	.st13{clip-path:url(#SVGID_20_);fill:#EAE7DB;}
	.st14{clip-path:url(#SVGID_22_);fill:#EAE7DB;}
	.st15{clip-path:url(#SVGID_24_);fill:#EAE7DB;}
	.st16{clip-path:url(#SVGID_26_);fill:#EAE7DB;}
	.st17{clip-path:url(#SVGID_28_);fill:#EAE7DB;}
</style>
<g id="Layer_1">
	<rect class="st0" width="252" height="144"/>
</g>
<g id="Layer_1_copy">
	<rect class="st1" width="252" height="144"/>
</g>
<g id="Layer_2" class="st2">
</g>
<g id="Layer_4">
	<g>
		<g>
			<defs>
				<path id="SVGID_15_" d="M117.1,47.5c0-1.5,1.2-2.7,2.7-2.7c1.5,0,2.7,1.2,2.7,2.7c0,1.5-1.2,2.7-2.7,2.7
					C118.3,50.2,117.1,49,117.1,47.5z M106.4,47.5c0-1.5,1.2-2.7,2.7-2.7c1.5,0,2.7,1.2,2.7,2.7c0,1.5-1.2,2.7-2.7,2.7
					C107.6,50.2,106.4,49,106.4,47.5z M95.8,47.5c0-1.5,1.2-2.7,2.7-2.7c1.5,0,2.7,1.2,2.7,2.7c0,1.5-1.2,2.7-2.7,2.7
					C97,50.2,95.8,49,95.8,47.5z M161.6,97.3c0,2-1.6,3.6-3.6,3.6H94c-2,0-3.6-1.6-3.6-3.6V58.2c0-0.2,0.1-0.5,0.3-0.6
					c0.2-0.2,0.4-0.3,0.6-0.3h33.8c0.2,0,0.5-0.1,0.6-0.3l18.7-18.7c0.3-0.3,0.3-0.6,0.2-1c-0.1-0.3-0.5-0.5-0.8-0.5H94
					c-5.9,0-10.7,4.8-10.7,10.7v49.8c0,5.9,4.8,10.7,10.7,10.7h64c5.9,0,10.7-4.8,10.7-10.7V60c0-0.4-0.2-0.7-0.5-0.8
					c-0.3-0.1-0.7-0.1-1,0.2l-5.3,5.3c-0.2,0.2-0.3,0.4-0.3,0.6V97.3z"/>
			</defs>
			<use xlink:href="#SVGID_15_"  style="overflow:visible;fill:#EAE7DB;"/>
			<clipPath id="SVGID_2_">
				<use xlink:href="#SVGID_15_"  style="overflow:visible;"/>
			</clipPath>
			<rect x="65.5" y="19" style="clip-path:url(#SVGID_2_);fill:#EAE7DB;" width="121" height="106.7"/>
		</g>
		<g>
			<defs>
				<path id="SVGID_17_" d="M102,69.8h9.8c1.5,0,2.7-1.2,2.7-2.7c0-1.5-1.2-2.7-2.7-2.7H102c-1.5,0-2.7,1.2-2.7,2.7
					C99.3,68.6,100.5,69.8,102,69.8z"/>
			</defs>
			<use xlink:href="#SVGID_17_"  style="overflow:visible;fill:#EAE7DB;"/>
			<clipPath id="SVGID_4_">
				<use xlink:href="#SVGID_17_"  style="overflow:visible;"/>
			</clipPath>
			<rect x="81.5" y="46.6" style="clip-path:url(#SVGID_4_);fill:#EAE7DB;" width="50.7" height="40.9"/>
		</g>
		<g>
			<defs>
				<path id="SVGID_19_" d="M102,82.2h9.8c1.5,0,2.7-1.2,2.7-2.7c0-1.5-1.2-2.7-2.7-2.7H102c-1.5,0-2.7,1.2-2.7,2.7
					C99.3,81,100.5,82.2,102,82.2z"/>
			</defs>
			<use xlink:href="#SVGID_19_"  style="overflow:visible;fill:#EAE7DB;"/>
			<clipPath id="SVGID_6_">
				<use xlink:href="#SVGID_19_"  style="overflow:visible;"/>
			</clipPath>
			<rect x="81.5" y="59.1" style="clip-path:url(#SVGID_6_);fill:#EAE7DB;" width="50.7" height="40.9"/>
		</g>
		<g>
			<defs>
				<path id="SVGID_21_" d="M102,94.7h48c1.5,0,2.7-1.2,2.7-2.7c0-1.5-1.2-2.7-2.7-2.7h-48c-1.5,0-2.7,1.2-2.7,2.7
					C99.3,93.5,100.5,94.7,102,94.7z"/>
			</defs>
			<use xlink:href="#SVGID_21_"  style="overflow:visible;fill:#EAE7DB;"/>
			<clipPath id="SVGID_8_">
				<use xlink:href="#SVGID_21_"  style="overflow:visible;"/>
			</clipPath>
			<rect x="81.5" y="71.5" style="clip-path:url(#SVGID_8_);fill:#EAE7DB;" width="89" height="40.9"/>
		</g>
		<g>
			<defs>
				<path id="SVGID_23_" d="M128.6,68.1c-0.4-0.4-1.1-0.6-1.7-0.5c-0.6,0.2-1.1,0.6-1.3,1.2l-3.1,11c-0.2,0.6,0,1.3,0.5,1.7
					c0.5,0.5,1.1,0.6,1.7,0.5l11-3.1c0.6-0.2,1.1-0.7,1.2-1.3c0.2-0.6,0-1.3-0.5-1.7L128.6,68.1z"/>
			</defs>
			<use xlink:href="#SVGID_23_"  style="overflow:visible;fill:#EAE7DB;"/>
			<clipPath id="SVGID_10_">
				<use xlink:href="#SVGID_23_"  style="overflow:visible;"/>
			</clipPath>
			<rect x="104.7" y="49.8" style="clip-path:url(#SVGID_10_);fill:#EAE7DB;" width="50.2" height="50.2"/>
		</g>
		<g>
			<defs>
				<path id="SVGID_25_" d="M160.8,57.1c0.7-0.7,0.7-1.8,0-2.5l-10.7-10.7c-0.7-0.7-1.8-0.7-2.5,0l-17.8,17.8
					c-0.7,0.7-0.7,1.8,0,2.5l10.7,10.7c0.7,0.7,1.8,0.7,2.5,0L160.8,57.1z"/>
			</defs>
			<use xlink:href="#SVGID_25_"  style="overflow:visible;fill:#EAE7DB;"/>
			<clipPath id="SVGID_12_">
				<use xlink:href="#SVGID_25_"  style="overflow:visible;"/>
			</clipPath>
			<rect x="111.4" y="25.6" style="clip-path:url(#SVGID_12_);fill:#EAE7DB;" width="67.6" height="67.7"/>
		</g>
		<g>
			<defs>
				<path id="SVGID_27_" d="M152.6,38.9c-0.7,0.7-0.7,1.8,0,2.5L163.3,52c0.3,0.3,0.7,0.5,1.2,0.4c0.6,0,1.1-0.2,1.5-0.6
					c1.7-1.7,2.7-4.1,2.7-6.6c0-2.5-1-4.8-2.7-6.6c-1.8-1.7-4.2-2.7-6.7-2.7C156.7,36,154.4,37.1,152.6,38.9z"/>
			</defs>
			<use xlink:href="#SVGID_27_"  style="overflow:visible;fill:#EAE7DB;"/>
			<clipPath id="SVGID_14_">
				<use xlink:href="#SVGID_27_"  style="overflow:visible;"/>
			</clipPath>
			<rect x="134.3" y="18.2" style="clip-path:url(#SVGID_14_);fill:#EAE7DB;" width="52.2" height="52.1"/>
		</g>
	</g>
</g>
</svg>
