<?xml version="1.0" encoding="utf-8"?>
<!-- Generator: Adobe Illustrator 23.1.1, SVG Export Plug-In . SVG Version: 6.00 Build 0)  -->
<svg version="1.1" id="Layer_1" xmlns="http://www.w3.org/2000/svg" xmlns:xlink="http://www.w3.org/1999/xlink" x="0px" y="0px"
	 width="90px" height="90px" viewBox="0 0 90 90" style="enable-background:new 0 0 90 90;" xml:space="preserve">
<style type="text/css">
	.st0{fill:#006735;}
	.st1{clip-path:url(#SVGID_2_);fill:#006735;}
</style>
<g>
	<path class="st0" d="M45,3c23.2,0,42,18.8,42,42S68.2,87,45,87S3,68.2,3,45S21.8,3,45,3 M45,0C20.1,0,0,20.1,0,45s20.1,45,45,45
		s45-20.1,45-45S69.9,0,45,0L45,0z"/>
</g>
<g>
	<g>
		<defs>
			<path id="SVGID_1_" d="M36.7,50.4c0.8,0,1.5,0.7,1.5,1.5c0,3.7,3,6.8,6.8,6.8c0.8,0,1.5,0.7,1.5,1.5c0,0.8-0.7,1.5-1.5,1.5
				c-5.4,0-9.8-4.4-9.8-9.8C35.2,51,35.9,50.4,36.7,50.4z M45,68.4c9.1,0,16.5-7.4,16.5-16.5c0-7.1-9.8-22.7-14-29
				c-0.6-0.8-1.5-1.3-2.5-1.3s-1.9,0.5-2.5,1.3c-4.2,6.4-14,21.9-14,29C28.5,61,35.9,68.4,45,68.4z"/>
		</defs>
		<use xlink:href="#SVGID_1_"  style="overflow:visible;fill:#006735;"/>
		<clipPath id="SVGID_2_">
			<use xlink:href="#SVGID_1_"  style="overflow:visible;"/>
		</clipPath>
		<rect x="13.5" y="6.6" class="st1" width="63.1" height="76.8"/>
	</g>
</g>
</svg>
