<?xml version="1.0" encoding="utf-8"?>
<!-- Generator: Adobe Illustrator 23.1.1, SVG Export Plug-In . SVG Version: 6.00 Build 0)  -->
<svg version="1.1" id="Layer_1" xmlns="http://www.w3.org/2000/svg" xmlns:xlink="http://www.w3.org/1999/xlink" x="0px" y="0px"
	 width="180px" height="36.2px" viewBox="0 0 180 36.2" style="enable-background:new 0 0 180 36.2;" xml:space="preserve">
<style type="text/css">
	.st0{fill:#FFFFFF;}
	.st1{fill:#FCEA05;}
	.st2{fill:#1FB35C;}
</style>
<g>
	<g>
		<g>
			<path class="st0" d="M44.6,12.9l0-2.8c0-0.7,0-2.1,0-2.7L45,7.3l5.4,6.2v-3.2c0-0.7,0-2.3-0.1-2.8c0.5,0,0.9,0,1.3-0.1
				c0,0.3-0.1,1.3-0.1,1.7l-0.1,4.9c0,0.5,0,1.4,0,1.7l-0.3,0.1l-5.3-6.2V14c0,0.5,0,1.4,0,1.7h-1.3C44.6,15.1,44.6,13.6,44.6,12.9z
				"/>
			<path class="st0" d="M58.5,15.7c-0.7,0-1.6-0.1-2.4-0.1c-0.8,0-1.7,0-2.4,0.1c0.1-0.6,0.1-2.1,0.1-2.9v-2.6c0-0.7,0-2.3-0.1-2.9
				c0.7,0,1.5,0.1,2.3,0.1c0.8,0,1.6,0,2.3-0.1c-0.1,0.3-0.1,0.6-0.1,1c-0.7,0-1.4,0-2.2,0c-0.4,0-0.7,0-1.1,0c0,0.2,0,0.5,0,0.7
				v1.8l2.8,0c0,0.3,0,0.7,0,1l-2.8,0V14c0,0.2,0,0.5,0,0.7c0.4,0,0.7,0,1.1,0c0.9,0,1.8,0,2.6,0C58.6,15,58.6,15.3,58.5,15.7z"/>
			<path class="st0" d="M60.3,7.4l2.6,6.2l1.6-3.9c0.3-0.7,0.6-1.5,0.9-2.2h1.3l-2.6,6c-0.4,1-0.7,1.7-0.9,2.3l-0.3,0.1l-2.6-6
				c-0.3-0.7-0.7-1.7-1.1-2.4L60.3,7.4z"/>
			<path class="st0" d="M68.9,9.7c0.5-1,0.8-1.7,1-2.3l0.3-0.1l2.8,6c0.3,0.7,0.8,1.7,1.1,2.4l-1.3,0.1l-1.1-2.4h-3.5l0,0.1
				c-0.3,0.7-0.6,1.5-0.9,2.2h-1.3L68.9,9.7z M68.8,12.4h2.6l-1.3-2.9L68.8,12.4z"/>
			<path class="st0" d="M77.9,15.7h-2.5c0.1-0.6,0.1-2.1,0.1-2.8v-2.6c0-0.7,0-2.3-0.1-2.8c0.4,0,1.2-0.1,2.3-0.1
				c2.9,0,4.4,1.8,4.4,3.9C82.1,13.9,80.4,15.7,77.9,15.7z M77.7,8.4c-0.4,0-0.7,0-1,0c0,0.2,0,0.5,0,0.7V14c0,0.2,0,0.4,0,0.7
				c0.4,0,0.6,0.1,1.1,0.1c2.3,0,3.2-1.5,3.2-3.2C81,9.6,79.8,8.4,77.7,8.4z"/>
			<path class="st0" d="M85.3,9.7c0.5-1,0.8-1.7,1-2.3l0.3-0.1l2.8,6c0.3,0.7,0.8,1.7,1.1,2.4l-1.3,0.1l-1.1-2.4h-3.5l0,0.1
				c-0.3,0.7-0.6,1.5-0.9,2.2h-1.3L85.3,9.7z M85.2,12.4h2.6l-1.3-2.9L85.2,12.4z"/>
			<path class="st0" d="M47.3,27h-3.1c0.1-0.6,0.1-2.1,0.1-2.8v-2.6c0-0.7,0-2.2-0.1-2.8c0.4,0,1.5-0.1,2.8-0.1c3.1,0,4.8,1.5,4.8,4
				C51.8,25.4,50.1,27,47.3,27z M47.3,20.5c-0.2,0-0.4,0-0.6,0c0,0.2,0,0.4,0,0.5v3.6c0,0.1,0,0.3,0,0.5c0.2,0,0.3,0,0.6,0
				c1.6,0,2.2-1,2.2-2.4C49.5,21.4,48.7,20.5,47.3,20.5z"/>
			<path class="st0" d="M53,27c0.1-0.6,0.1-2.1,0.1-2.8v-2.6c0-0.7,0-2.3-0.1-2.8c0.5,0,2.1,0,2.5-0.1c0,0.3,0,1.3,0,1.7v4.9
				c0,0.4,0,1.4,0,1.7H53z"/>
			<path class="st0" d="M58.9,18.7l1.8,5.4l1.2-3.6c0.2-0.6,0.4-1.2,0.6-1.7h2.5l-2.5,6c-0.4,1-0.6,1.6-0.9,2.2l-1.8,0.1l-2.4-5.9
				c-0.3-0.7-0.7-1.7-1-2.4L58.9,18.7z"/>
			<path class="st0" d="M65.7,27c0.1-0.6,0.1-2.1,0.1-2.8v-2.6c0-0.7,0-2.3-0.1-2.8c0.5,0,2.1,0,2.5-0.1c0,0.3,0,1.3,0,1.7v4.9
				c0,0.4,0,1.4,0,1.7H65.7z"/>
			<path class="st0" d="M72.2,27.2c-1,0-2.1-0.3-2.7-0.7l0.1-2.1c0.5,0.4,1.7,0.9,2.7,0.9c0.5,0,0.8-0.2,0.8-0.7
				c0-1-3.4-1.2-3.4-3.5c0-1.7,1.2-2.6,2.9-2.6c0.9,0,1.9,0.3,2.4,0.6L74.6,21c-0.5-0.3-1.3-0.5-1.9-0.5c-0.5,0-0.8,0.3-0.8,0.6
				c0,1,3.4,1.2,3.4,3.5C75.3,26.3,74,27.2,72.2,27.2z"/>
			<path class="st0" d="M76.5,27c0.1-0.6,0.1-2.1,0.1-2.8v-2.6c0-0.7,0-2.3-0.1-2.8c0.5,0,2.1,0,2.5-0.1c0,0.3,0,1.3,0,1.7v4.9
				c0,0.4,0,1.4,0,1.7H76.5z"/>
			<path class="st0" d="M80.2,23.1c0-2.6,1.7-4.5,4.3-4.5c2.5,0,4.1,1.8,4.1,4.1c0,2.6-1.7,4.5-4.3,4.5
				C81.8,27.2,80.2,25.4,80.2,23.1z M86.3,22.9c0-1.6-0.8-2.5-1.9-2.5c-1.2,0-1.9,1.1-1.9,2.5c0,1.6,0.8,2.5,1.9,2.5
				C85.5,25.4,86.3,24.3,86.3,22.9z"/>
			<path class="st0" d="M89.8,24.2l0-2.6c0-0.7,0-2.2-0.1-2.8l1.7-0.1l3.8,4.6v-1.7c0-0.7,0-2.3-0.1-2.8c0.5,0,2,0,2.4-0.1
				c0,0.3-0.1,1.3-0.1,1.7v4.9c0,0.5,0,1.4,0,1.7l-1.7,0.1L92,22.5v2.8c0,0.4,0,1.4,0,1.7h-2.3C89.7,26.4,89.8,25,89.8,24.2z"/>
			<path class="st0" d="M101,23.1c0-2.6,1.7-4.5,4.3-4.5c2.5,0,4.1,1.8,4.1,4.1c0,2.6-1.7,4.5-4.3,4.5C102.6,27.2,101,25.4,101,23.1
				z M107.1,22.9c0-1.6-0.8-2.5-1.9-2.5c-1.2,0-2,1.1-2,2.5c0,1.6,0.8,2.5,1.9,2.5C106.4,25.4,107.1,24.3,107.1,22.9z"/>
			<path class="st0" d="M116,20.6c-0.6,0-1.2,0-1.9,0c-0.4,0-0.7,0-1,0c0,0.2,0,0.5,0,0.6v0.9l2.4,0c0,0.5,0,1,0,1.7l-2.4,0v1.5
				c0,0.4,0,1.4,0,1.7h-2.5c0.1-0.6,0.1-2.1,0.1-2.8v-2.6c0-0.7,0-2.3-0.1-2.9c0.9,0,1.8,0.1,2.8,0.1c1,0,1.9,0,2.7-0.1
				C116,19.4,116,19.9,116,20.6z"/>
			<path class="st0" d="M125,20.6c-0.6,0-1.2,0-1.9,0c-0.4,0-0.7,0-1,0c0,0.2,0,0.5,0,0.6v0.9l2.4,0c0,0.5,0,1,0,1.7l-2.4,0v1.5
				c0,0.4,0,1.4,0,1.7h-2.5c0.1-0.6,0.1-2.1,0.1-2.8v-2.6c0-0.7,0-2.3-0.1-2.9c0.9,0,1.8,0.1,2.8,0.1c1,0,1.9,0,2.7-0.1
				C125,19.4,125,19.9,125,20.6z"/>
			<path class="st0" d="M125.7,23.1c0-2.6,1.7-4.5,4.3-4.5c2.5,0,4.1,1.8,4.1,4.1c0,2.6-1.7,4.5-4.3,4.5
				C127.3,27.2,125.7,25.4,125.7,23.1z M131.8,22.9c0-1.6-0.8-2.5-1.9-2.5c-1.2,0-2,1.1-2,2.5c0,1.6,0.8,2.5,1.9,2.5
				C131.1,25.4,131.8,24.3,131.8,22.9z"/>
			<path class="st0" d="M140,27.1l-1.6-2.8l-0.2,0l-0.5,0v0.9c0,0.5,0,1.4,0,1.7h-2.5c0.1-0.6,0.1-2.1,0.1-2.8v-2.6
				c0-0.7,0-2.3-0.1-2.8c0.4,0,2.2-0.1,2.8-0.1c2.5,0,3.9,1,3.9,2.5c0,1.2-0.6,1.9-1.5,2.5l1.4,2l0.8,1.2L140,27.1z M138.3,22.8
				c0.8,0,1.3-0.5,1.3-1.2c0-0.6-0.3-1.1-1.4-1.1c-0.2,0-0.4,0-0.6,0v2.3H138.3z"/>
			<path class="st0" d="M149.1,27.1c-0.8,0-1.7-0.1-2.6-0.1c-1,0-2.1,0-3,0.1c0.1-0.6,0.1-2.1,0.1-2.9v-2.6c0-0.7,0-2.3-0.1-2.9
				c0.9,0,1.8,0.1,2.8,0.1c1,0,1.9,0,2.7-0.1c0,0.6-0.1,1.1-0.1,1.9c-0.6,0-1.2,0-1.9,0c-0.4,0-0.7,0-1.1,0c0,0.2,0,0.4,0,0.5V22
				l2.5,0c0,0.5,0,1,0,1.6h-2.5v1c0,0.1,0,0.4,0,0.5c0.3,0,0.7,0,1.1,0c0.8,0,1.5,0,2.2,0C149.1,25.8,149.1,26.3,149.1,27.1z"/>
			<path class="st0" d="M152.7,27.2c-1,0-2.1-0.3-2.7-0.7l0.1-2.1c0.5,0.4,1.7,0.9,2.7,0.9c0.5,0,0.8-0.2,0.8-0.7
				c0-1-3.4-1.2-3.4-3.5c0-1.7,1.2-2.6,2.9-2.6c0.9,0,1.9,0.3,2.4,0.6L155,21c-0.5-0.3-1.3-0.5-1.9-0.5c-0.5,0-0.8,0.3-0.8,0.6
				c0,1,3.3,1.2,3.3,3.5C155.7,26.3,154.4,27.2,152.7,27.2z"/>
			<path class="st0" d="M163.5,20.7c-0.8,0-1.5,0-2.4,0c0,0.3,0,0.6,0,0.7v3.9c0,0.4,0,1.4,0,1.7h-2.5c0.1-0.6,0.1-2.1,0.1-2.8v-1.7
				c0-0.4,0-1.2,0-1.8c-0.9,0-1.7,0-2.5,0c0-0.6,0-1.3,0-2c1.1,0,2.3,0.1,3.6,0.1c1.4,0,2.5,0,3.7-0.1
				C163.6,19.4,163.5,19.9,163.5,20.7z"/>
			<path class="st0" d="M169.3,27.1l-1.6-2.8l-0.2,0l-0.5,0v0.9c0,0.5,0,1.4,0,1.7h-2.5c0.1-0.6,0.1-2.1,0.1-2.8v-2.6
				c0-0.7,0-2.3-0.1-2.8c0.4,0,2.2-0.1,2.8-0.1c2.5,0,3.9,1,3.9,2.5c0,1.2-0.6,1.9-1.5,2.5l1.4,2l0.8,1.2L169.3,27.1z M167.7,22.8
				c0.8,0,1.3-0.5,1.3-1.2c0-0.6-0.3-1.1-1.4-1.1c-0.2,0-0.4,0-0.6,0v2.3H167.7z"/>
			<path class="st0" d="M174.1,18.7l1.7,3l0.5-0.8c0.4-0.6,0.9-1.6,1.2-2.1h2.5l-3.1,4.9v1.7c0,0.4,0,1.4,0,1.7h-2.5
				c0.1-0.6,0.1-2.1,0.1-2.8v-0.5l-1.2-2c-0.5-0.8-1.4-2.2-1.8-2.9L174.1,18.7z"/>
		</g>
	</g>
	<g>
		<g>
			<g>
				<g>
					<path class="st1" d="M18.5,0C8.3-0.2,0.2,7.9,0,17.7C-0.2,28,8.1,36.2,18.1,36.2c9.9,0,17.9-7.9,18.1-17.7
						C36.4,8.3,28.3,0.2,18.5,0z M35.5,18.4c-0.2,9.5-8,17.3-17.7,17.1C8.5,35.3,0.7,27.8,0.7,18.1c0-9.8,7.9-17.4,17.4-17.4
						C27.7,0.7,35.7,8.5,35.5,18.4z"/>
				</g>
				<g>
					<g>
						<path class="st2" d="M18.1,0.7C8.6,0.7,0.7,8.3,0.7,18.1c0,9.7,7.8,17.2,17.1,17.4c9.8,0.2,17.6-7.6,17.7-17.1
							C35.7,8.5,27.7,0.7,18.1,0.7z M17.7,6.1c-0.4,1-0.9,1.8-1.6,2.5c-0.2,0.2-0.4,0.4-0.6,0.7c0.2,0.1,0.4,0.1,0.6,0.2
							c0.1,0,0.2,0.1,0.1,0.2c-0.4,0.7-1,1.4-1.7,1.9c-0.2,0.2-0.5,0.4-0.7,0.6c0.2,0.2,0.5,0.3,0.8,0.4c0.2,0,0.2,0.1,0.1,0.2
							C14,14,13.1,15,12.1,16c-0.2,0.2-0.2,0.2,0,0.3c0.2,0.1,0.4,0.2,0.6,0.3c0.2,0,0.2,0.1,0.1,0.2c-0.7,1.2-1.6,2.2-2.7,3
							c0,0-0.1,0-0.1,0.1c0.3,0.2,0.5,0.3,0.8,0.4c0.3,0.1,0.5,0.2,0.8,0.2c0.2,0,0.2,0.1,0.1,0.2c-0.4,0.6-0.9,1.1-1.4,1.6
							C9.7,23,9,23.6,8.2,24.1c0,0,0,0,0,0c0.5,0.2,1,0.4,1.6,0.4c0.7,0.1,1.4,0.1,2.2,0.1c0.1,0,0.1,0,0.2,0c0,0.1,0,0.1-0.1,0.2
							c-0.1,0.2-0.3,0.4-0.5,0.6c-0.1,0.1-0.1,0.1,0,0.2c0.5,0.2,1.1,0.4,1.6,0.4c1.4,0.2,2.7,0,4.1-0.2c0.2,0,0.2,0.1,0.2,0.2
							c0.1,0.7,0.1,1.3,0.1,2c0,0.7-0.1,1.3-0.2,2c0,0.1-0.1,0.1-0.2,0.1c-2.8-0.2-5.3-1.3-7.4-3.3c-1.9-1.8-3.2-4.1-3.6-6.7
							c-0.7-3.9,0.3-7.4,3-10.3C11,7.8,13.4,6.5,16.3,6C16.7,6,17.2,6,17.6,5.9C17.8,5.9,17.7,6,17.7,6.1z M26.6,26.8
							c-1.9,1.9-4.1,3-6.8,3.4c-0.3,0-0.6,0.1-0.8,0.1c-0.1,0-0.1,0-0.2-0.1c-0.2-1.3-0.3-2.7-0.2-4c0-0.2,0.1-0.2,0.3-0.2
							c1,0.2,2,0.3,3,0.2c0.9,0,1.8-0.1,2.6-0.5c0.2-0.1,0.2-0.1,0-0.2c-0.2-0.2-0.3-0.3-0.5-0.5c0,0-0.1-0.1-0.1-0.2
							c0-0.1,0.1,0,0.2,0c0.8,0,1.6,0,2.4-0.2c0.5-0.1,0.9-0.2,1.4-0.4c-1.5-0.9-2.7-2.2-3.7-3.6c0.7-0.1,1.3-0.3,1.8-0.6
							c0-0.1-0.1-0.1-0.1-0.1c-1.1-0.8-2-1.8-2.7-3c-0.1-0.2-0.1-0.2,0.1-0.2c0.3-0.1,0.5-0.2,0.7-0.3c0.1-0.1,0.1-0.1,0-0.2
							c-0.7-0.6-1.3-1.2-1.8-2c-0.3-0.4-0.6-0.9-0.9-1.4c0.3-0.1,0.7-0.2,1-0.4c-0.4-0.3-0.7-0.6-1-0.9c-0.5-0.5-1-1-1.4-1.7
							c-0.1-0.1-0.1-0.2,0.1-0.2c0.2,0,0.4-0.1,0.7-0.2c-0.4-0.4-0.8-0.8-1.1-1.2c-0.5-0.6-0.9-1.3-1.2-2c0-0.1-0.1-0.2,0.1-0.2
							c1.7,0.1,3.4,0.5,5,1.3c3.5,1.9,5.8,4.7,6.5,8.7C30.8,20.1,29.6,23.7,26.6,26.8z"/>
					</g>
				</g>
				<g>
					<g>
						<path class="st1" d="M16.1,8.6c-0.2,0.2-0.4,0.4-0.6,0.7c0.2,0.1,0.4,0.1,0.6,0.2c0.1,0,0.2,0.1,0.1,0.2
							c-0.4,0.7-1,1.4-1.7,1.9c-0.2,0.2-0.5,0.4-0.7,0.6c0.2,0.2,0.5,0.3,0.8,0.4c0.2,0,0.2,0.1,0.1,0.2C14,14,13.1,15,12.1,16
							c-0.2,0.2-0.2,0.2,0,0.3c0.2,0.1,0.4,0.2,0.6,0.3c0.2,0,0.2,0.1,0.1,0.2c-0.7,1.2-1.6,2.2-2.7,3c0,0-0.1,0-0.1,0.1
							c0.3,0.2,0.5,0.3,0.8,0.4c0.3,0.1,0.5,0.2,0.8,0.2c0.2,0,0.2,0.1,0.1,0.2c-0.4,0.6-0.9,1.1-1.4,1.6C9.7,23,9,23.6,8.2,24.1
							c0,0,0,0,0,0c0.5,0.2,1,0.4,1.6,0.4c0.7,0.1,1.4,0.1,2.2,0.1c0.1,0,0.1,0,0.2,0c0,0.1,0,0.1-0.1,0.2c-0.1,0.2-0.3,0.4-0.5,0.6
							c-0.1,0.1-0.1,0.1,0,0.2c0.5,0.2,1.1,0.4,1.6,0.4c1.4,0.2,2.7,0,4.1-0.2c0.2,0,0.2,0.1,0.2,0.2c0.1,0.7,0.1,1.3,0.1,2
							c0,0.7-0.1,1.3-0.2,2c0,0.1-0.1,0.1-0.2,0.1c-2.8-0.2-5.3-1.3-7.4-3.3c-1.9-1.8-3.2-4.1-3.6-6.7c-0.7-3.9,0.3-7.4,3-10.3
							c1.9-2.2,4.4-3.4,7.2-3.9C16.7,6,17.2,6,17.6,5.9c0.2,0,0.1,0.1,0.1,0.2C17.3,7,16.8,7.9,16.1,8.6z"/>
					</g>
					<g>
						<path class="st1" d="M26.6,26.8c-1.9,1.9-4.1,3-6.8,3.4c-0.3,0-0.6,0.1-0.8,0.1c-0.1,0-0.1,0-0.2-0.1c-0.2-1.3-0.3-2.7-0.2-4
							c0-0.2,0.1-0.2,0.3-0.2c1,0.2,2,0.3,3,0.2c0.9,0,1.8-0.1,2.6-0.5c0.2-0.1,0.2-0.1,0-0.2c-0.2-0.2-0.3-0.3-0.5-0.5
							c0,0-0.1-0.1-0.1-0.2c0-0.1,0.1,0,0.2,0c0.8,0,1.6,0,2.4-0.2c0.5-0.1,0.9-0.2,1.4-0.4c-1.5-0.9-2.7-2.2-3.7-3.6
							c0.7-0.1,1.3-0.3,1.8-0.6c0-0.1-0.1-0.1-0.1-0.1c-1.1-0.8-2-1.8-2.7-3c-0.1-0.2-0.1-0.2,0.1-0.2c0.3-0.1,0.5-0.2,0.7-0.3
							c0.1-0.1,0.1-0.1,0-0.2c-0.7-0.6-1.3-1.2-1.8-2c-0.3-0.4-0.6-0.9-0.9-1.4c0.3-0.1,0.7-0.2,1-0.4c-0.4-0.3-0.7-0.6-1-0.9
							c-0.5-0.5-1-1-1.4-1.7c-0.1-0.1-0.1-0.2,0.1-0.2c0.2,0,0.4-0.1,0.7-0.2c-0.4-0.4-0.8-0.8-1.1-1.2c-0.5-0.6-0.9-1.3-1.2-2
							c0-0.1-0.1-0.2,0.1-0.2c1.7,0.1,3.4,0.5,5,1.3c3.5,1.9,5.8,4.7,6.5,8.7C30.8,20.1,29.6,23.7,26.6,26.8z"/>
					</g>
				</g>
			</g>
			<g>
				<g>
					<path class="st0" d="M10,3.5c0.1,0.1,0.1,0.2,0.1,0.2c-0.1,0-0.1,0.1-0.1,0.2c0,0.1,0,0.1,0,0.2c0,0.1,0.1,0.2,0.2,0.4l1.3,1.9
						c0,0.1-0.1,0.1-0.2,0.2l-2.9-1l0.8,1.2C9.4,6.9,9.5,7,9.6,7.1c0.1,0.1,0.1,0.1,0.2,0.1c0.1,0,0.1,0,0.2-0.1
						c0,0,0.1,0.1,0.2,0.2C10,7.4,9.9,7.5,9.7,7.6C9.5,7.7,9.4,7.8,9.3,7.9C9.2,7.8,9.2,7.7,9.2,7.7c0.1-0.1,0.1-0.1,0.1-0.2
						c0-0.1,0-0.1,0-0.2c0-0.1-0.1-0.2-0.2-0.4L8,5.4L8,5.3c-0.1,0-0.1,0-0.2,0c0,0-0.1,0-0.2,0.1c-0.1,0-0.1-0.1-0.2-0.2
						c0.1,0,0.2-0.1,0.4-0.2C8,4.9,8.1,4.8,8.1,4.8l2.7,0.9l-0.8-1.1C10,4.4,9.9,4.3,9.8,4.2C9.7,4.2,9.7,4.1,9.6,4.1
						c-0.1,0-0.1,0-0.2,0.1C9.3,4.1,9.3,4.1,9.2,4c0.1-0.1,0.3-0.2,0.4-0.3C9.8,3.6,9.9,3.5,10,3.5z"/>
				</g>
				<g>
					<path class="st0" d="M14.4,4.4c0,0.2,0,0.5,0.1,0.8c-0.3,0.1-0.6,0.2-1,0.4c-0.6,0.2-1,0.4-1.2,0.5c0-0.1-0.1-0.2-0.1-0.2
						c0.1,0,0.1-0.1,0.2-0.1c0,0,0-0.1,0-0.2c0-0.1,0-0.2-0.1-0.3l-0.6-1.7c0-0.1-0.1-0.2-0.1-0.2s-0.1-0.1-0.1-0.1
						c-0.1,0-0.1,0-0.2,0c0,0-0.1-0.1-0.1-0.2c0.2-0.1,0.5-0.2,0.9-0.3c0.5-0.2,0.9-0.3,1.2-0.5c0.2,0.3,0.3,0.6,0.4,0.7
						C13.6,2.9,13.5,3,13.4,3c-0.1-0.2-0.2-0.3-0.3-0.3c-0.1-0.1-0.3,0-0.6,0l-0.4,0.1L12.6,4l0.2-0.1c0.2-0.1,0.3-0.1,0.3-0.2
						c0-0.1,0-0.2,0-0.3c0.1,0,0.1-0.1,0.3-0.1c0,0.1,0.1,0.3,0.2,0.5c0.1,0.2,0.1,0.4,0.2,0.5c-0.1,0-0.2,0.1-0.3,0.1
						c-0.1-0.1-0.1-0.2-0.2-0.3c-0.1,0-0.2,0-0.4,0.1l-0.2,0.1l0.3,0.7c0,0.1,0.1,0.2,0.1,0.3c0,0.1,0.1,0.1,0.2,0.1
						c0.1,0,0.1,0,0.3-0.1l0,0c0.2-0.1,0.3-0.1,0.4-0.2c0.1-0.1,0.1-0.2,0.2-0.3c0-0.1,0-0.2,0-0.4C14.2,4.3,14.3,4.4,14.4,4.4z"/>
				</g>
				<g>
					<path class="st0" d="M17.7,1.4c0,0.1,0,0.2,0,0.3c-0.1,0-0.2,0.1-0.2,0.2c0,0.1-0.1,0.2-0.1,0.4c-0.3,1-0.5,1.8-0.7,2.5
						c-0.1,0-0.1,0-0.3,0.1c-0.5-0.9-0.9-1.7-1.3-2.3C15,2.4,15,2.3,14.9,2.2c0-0.1-0.1-0.1-0.1-0.1c0,0-0.1,0-0.1,0
						c0-0.1,0-0.1-0.1-0.2c0.1,0,0.3,0,0.6-0.1c0.2,0,0.4-0.1,0.6-0.1c0,0.1,0,0.2,0,0.3c-0.1,0-0.2,0-0.2,0.1c0,0-0.1,0.1,0,0.1
						c0,0.1,0.1,0.2,0.1,0.3C16.1,3,16.3,3.5,16.6,4c0.2-0.7,0.4-1.2,0.5-1.7c0-0.1,0-0.2,0-0.3c0-0.1-0.1-0.2-0.3-0.2
						c0-0.1,0-0.1-0.1-0.2c0.1,0,0.3,0,0.4,0C17.4,1.5,17.5,1.4,17.7,1.4z"/>
				</g>
				<g>
					<path class="st0" d="M21,4.9c-0.1,0-0.3,0-0.6-0.1c-0.3,0-0.5,0-0.6,0c0-0.1,0-0.2,0.1-0.2c0.1,0,0.1,0,0.2,0
						c0,0,0.1,0,0.1-0.1c0,0,0-0.1,0-0.2l-0.1-0.4c-0.5,0-0.9-0.1-1.2-0.1L18.6,4c-0.1,0.1-0.1,0.2-0.1,0.3c0,0.1,0,0.1,0,0.1
						c0,0,0.1,0.1,0.2,0.1c0,0.1,0,0.2,0,0.3c-0.1,0-0.3,0-0.5-0.1c-0.1,0-0.2,0-0.4,0c0-0.1,0-0.2,0.1-0.2c0.1,0,0.2,0,0.2-0.1
						c0.1-0.1,0.1-0.2,0.2-0.4l1.2-2.4c0.1,0,0.1,0,0.2,0l0.9,2.6c0,0.1,0.1,0.2,0.1,0.3c0,0.1,0.1,0.1,0.1,0.1c0,0,0.1,0.1,0.1,0.1
						C21,4.8,21,4.8,21,4.9z M19.8,3.6l-0.2-0.7c-0.1-0.2-0.1-0.4-0.2-0.6c-0.1,0.2-0.2,0.4-0.2,0.5l-0.3,0.7L19.8,3.6z"/>
				</g>
				<g>
					<path class="st0" d="M24.8,3.2c0.2,0.3,0.3,0.8,0,1.3c-0.2,0.4-0.4,0.7-0.7,0.9c-0.3,0.2-0.6,0.2-0.8,0.2
						c-0.3,0-0.5-0.1-0.8-0.2c-0.6-0.2-1-0.4-1.2-0.4c0-0.1,0.1-0.2,0.1-0.2c0.1,0,0.2,0,0.2,0c0.1,0,0.1,0,0.1-0.1
						c0-0.1,0.1-0.1,0.1-0.3l0.6-1.7c0-0.1,0.1-0.2,0.1-0.3c0-0.1,0-0.1,0-0.2c0,0-0.1-0.1-0.2-0.1c0-0.1,0-0.1,0.1-0.2
						c0.2,0.1,0.4,0.2,0.7,0.3c0.1,0,0.2,0.1,0.2,0.1l0.3,0.1C24.2,2.6,24.5,2.9,24.8,3.2z M23.5,5.2c0.3-0.1,0.5-0.4,0.6-0.9
						c0.2-0.4,0.2-0.8,0-1.1c-0.1-0.3-0.4-0.5-0.7-0.6c-0.1,0-0.2-0.1-0.3-0.1l-0.8,2.1c0,0.1-0.1,0.2-0.1,0.3c0,0.1,0,0.1,0.1,0.2
						c0,0,0.1,0.1,0.2,0.1C23,5.4,23.3,5.4,23.5,5.2z"/>
				</g>
				<g>
					<path class="st0" d="M27,8c-0.1-0.1-0.3-0.2-0.5-0.4c-0.2-0.2-0.4-0.3-0.5-0.3c0.1-0.1,0.1-0.2,0.2-0.2c0.1,0,0.1,0.1,0.2,0.1
						c0,0,0.1,0,0.1-0.1c0,0,0.1-0.1,0.1-0.2l0.1-0.4c-0.4-0.3-0.7-0.5-1-0.7L25.4,6c-0.1,0.1-0.2,0.1-0.2,0.2c0,0.1,0,0.1,0,0.2
						c0,0,0,0.1,0.1,0.1c0,0.1-0.1,0.2-0.1,0.2c-0.1-0.1-0.2-0.2-0.4-0.3c-0.1-0.1-0.2-0.1-0.3-0.2C24.4,6.1,24.5,6,24.6,6
						c0.1,0,0.2,0,0.2,0c0.1,0,0.2-0.1,0.4-0.2l2.2-1.5c0.1,0,0.1,0.1,0.2,0.1l-0.5,2.7c0,0.1,0,0.3,0,0.3c0,0.1,0,0.1,0,0.2
						c0,0,0,0.1,0.1,0.1C27.1,7.8,27,7.9,27,8z M26.6,6.2l0.2-0.8c0-0.2,0.1-0.4,0.1-0.6c-0.2,0.1-0.3,0.2-0.5,0.4l-0.6,0.4
						L26.6,6.2z"/>
				</g>
			</g>
			<g>
				<g>
					<path class="st0" d="M6.1,12.2l-0.5,1.3c-0.1,0.2-0.2,0.4-0.4,0.6c-0.1,0.1-0.3,0.3-0.5,0.3c-0.2,0.1-0.4,0.1-0.6,0.1
						c-0.2,0-0.4-0.1-0.6-0.1c-0.2-0.1-0.4-0.2-0.6-0.3c-0.2-0.1-0.3-0.3-0.4-0.4c-0.1-0.2-0.2-0.4-0.2-0.6c0-0.2,0-0.4,0.1-0.7
						L2.9,11L6.1,12.2z M3.2,11.7L3,12.3c-0.1,0.2-0.1,0.4-0.1,0.6c0,0.2,0,0.3,0.1,0.4c0.1,0.1,0.2,0.2,0.3,0.3
						c0.1,0.1,0.3,0.1,0.4,0.2c0.2,0.1,0.3,0.1,0.5,0.1c0.1,0,0.3,0,0.4,0c0.1,0,0.3-0.1,0.4-0.2s0.2-0.3,0.3-0.5l0.2-0.5L3.2,11.7z
						"/>
				</g>
				<g>
					<path class="st0" d="M5.1,15.5L5,16l-3.3-0.6l0.1-0.6L5.1,15.5z"/>
				</g>
				<g>
					<path class="st0" d="M4.9,16.4l0,0.6l-2.7,0.8l0,0l2.7,0.9l0,0.6l-3.4-1.2l0-0.7L4.9,16.4z"/>
				</g>
				<g>
					<path class="st0" d="M4.9,19.8L5,20.4l-3.4,0.5l-0.1-0.6L4.9,19.8z"/>
				</g>
				<g>
					<path class="st0" d="M3.1,22.2c-0.1,0-0.2,0.1-0.3,0.2c-0.1,0.1-0.1,0.2-0.2,0.2c0,0.1,0,0.2,0,0.3c0,0.1,0,0.2,0.1,0.3
						c0,0.1,0.1,0.2,0.1,0.3c0.1,0.1,0.1,0.1,0.2,0.2c0.1,0,0.1,0.1,0.2,0.1c0.1,0,0.1,0,0.2,0c0.1,0,0.2-0.1,0.2-0.2
						c0-0.1,0.1-0.1,0.1-0.2c0-0.1,0-0.3,0-0.4c0-0.2,0-0.4,0-0.6c0-0.2,0-0.3,0-0.4c0-0.1,0.1-0.2,0.1-0.3c0.1-0.1,0.1-0.1,0.2-0.2
						s0.2-0.1,0.2-0.1c0.2-0.1,0.3-0.1,0.5,0c0.1,0,0.3,0.1,0.4,0.2c0.1,0.1,0.2,0.2,0.3,0.3c0.1,0.1,0.1,0.3,0.2,0.4
						c0.1,0.2,0.1,0.3,0.1,0.5c0,0.2,0,0.3-0.1,0.5c-0.1,0.1-0.1,0.3-0.2,0.4c-0.1,0.1-0.2,0.2-0.4,0.2l-0.2-0.6
						C5,23.1,5.1,23,5.1,22.9c0-0.2,0-0.3,0-0.5c0-0.1-0.1-0.1-0.1-0.2C5,22.1,4.9,22,4.9,22c-0.1,0-0.1-0.1-0.2-0.1
						c-0.1,0-0.1,0-0.2,0c-0.1,0-0.2,0.1-0.2,0.2c0,0.1-0.1,0.2-0.1,0.3c0,0,0,0.1,0,0.2c0,0.1,0,0.2,0,0.3c0,0.1,0,0.2,0,0.3
						c0,0.1,0,0.2,0,0.2c0,0.1,0,0.2,0,0.3c0,0.1-0.1,0.2-0.1,0.3c-0.1,0.1-0.1,0.1-0.2,0.2c-0.1,0.1-0.2,0.1-0.2,0.1
						c-0.2,0.1-0.3,0.1-0.5,0c-0.2,0-0.3-0.1-0.4-0.2c-0.1-0.1-0.2-0.2-0.3-0.4c-0.1-0.1-0.2-0.3-0.2-0.5c-0.1-0.2-0.1-0.4-0.1-0.5
						c0-0.2,0-0.3,0.1-0.5c0.1-0.2,0.1-0.3,0.3-0.4c0.1-0.1,0.3-0.2,0.5-0.3L3.1,22.2z"/>
				</g>
				<g>
					<path class="st0" d="M6.2,24l0.3,0.5l-3,1.6l-0.3-0.5L6.2,24z"/>
				</g>
				<g>
					<path class="st0" d="M7.8,26.3C8,26.5,8.1,26.7,8.1,27c0.1,0.2,0.1,0.4,0,0.6c0,0.2-0.1,0.4-0.2,0.6c-0.1,0.2-0.3,0.4-0.5,0.5
						C7.2,28.9,7,29,6.8,29.1c-0.2,0.1-0.4,0.1-0.6,0.1c-0.2,0-0.4-0.1-0.6-0.2c-0.2-0.1-0.4-0.2-0.5-0.4c-0.2-0.2-0.3-0.4-0.3-0.6
						c-0.1-0.2-0.1-0.4,0-0.6c0-0.2,0.1-0.4,0.2-0.6c0.1-0.2,0.3-0.4,0.5-0.5C5.6,26,5.8,25.9,6,25.8c0.2-0.1,0.4-0.1,0.6-0.1
						c0.2,0,0.4,0.1,0.6,0.2S7.6,26.1,7.8,26.3z M7.4,26.6c-0.1-0.1-0.2-0.2-0.4-0.3c-0.1-0.1-0.3-0.1-0.4-0.1
						c-0.1,0-0.3,0.1-0.4,0.1c-0.1,0.1-0.3,0.2-0.4,0.3c-0.1,0.1-0.2,0.2-0.3,0.3c-0.1,0.1-0.2,0.3-0.2,0.4c0,0.1-0.1,0.3,0,0.4
						c0,0.1,0.1,0.3,0.2,0.4c0.1,0.1,0.2,0.2,0.4,0.3c0.1,0.1,0.3,0.1,0.4,0.1c0.1,0,0.3-0.1,0.4-0.1c0.1-0.1,0.3-0.2,0.4-0.3
						s0.2-0.2,0.3-0.3c0.1-0.1,0.2-0.3,0.2-0.4c0-0.1,0.1-0.3,0-0.4C7.6,26.9,7.5,26.8,7.4,26.6z"/>
				</g>
				<g>
					<path class="st0" d="M9.1,27.9l0.5,0.4l-0.2,2.9l0,0l1.5-2l0.5,0.3l-2,2.7l-0.5-0.4L9,29l0,0l-1.5,2l-0.5-0.3L9.1,27.9z"/>
				</g>
				<g>
					<path class="st0" d="M14.6,30.8c0.2,0.1,0.5,0.2,0.6,0.3c0.2,0.1,0.3,0.3,0.4,0.5c0.1,0.2,0.1,0.4,0.2,0.6c0,0.2,0,0.5-0.1,0.7
						c-0.1,0.2-0.2,0.4-0.3,0.6c-0.1,0.2-0.3,0.3-0.5,0.5c-0.2,0.1-0.4,0.2-0.6,0.2c-0.2,0-0.5,0-0.7,0c-0.2-0.1-0.5-0.2-0.6-0.3
						c-0.2-0.1-0.3-0.3-0.4-0.5c-0.1-0.2-0.1-0.4-0.2-0.6c0-0.2,0-0.5,0.1-0.7c0.1-0.2,0.2-0.4,0.3-0.6c0.1-0.2,0.3-0.3,0.5-0.5
						c0.2-0.1,0.4-0.2,0.6-0.2C14.1,30.7,14.4,30.7,14.6,30.8z M14.5,31.3c-0.2,0-0.3-0.1-0.5,0c-0.1,0-0.3,0.1-0.4,0.2
						c-0.1,0.1-0.2,0.2-0.3,0.4c-0.1,0.1-0.1,0.3-0.2,0.4c0,0.2-0.1,0.3-0.1,0.5c0,0.2,0,0.3,0.1,0.4c0,0.1,0.1,0.3,0.2,0.4
						c0.1,0.1,0.2,0.2,0.4,0.2c0.2,0,0.3,0.1,0.5,0c0.1,0,0.3-0.1,0.4-0.2c0.1-0.1,0.2-0.2,0.3-0.4c0.1-0.1,0.1-0.3,0.2-0.4
						s0.1-0.3,0.1-0.5c0-0.2,0-0.3-0.1-0.4c0-0.1-0.1-0.3-0.2-0.4C14.8,31.4,14.7,31.3,14.5,31.3z"/>
				</g>
				<g>
					<path class="st0" d="M16.7,31.3l2.3,0.1l0,0.5l-1.7,0l0,0.9l1.5,0l0,0.5l-1.5,0l0,1.5l-0.6,0L16.7,31.3z"/>
				</g>
				<g>
					<path class="st0" d="M20.9,31.1l2.2-0.7l0.1,0.5l-1.7,0.5l0.3,0.9l1.5-0.4l0.1,0.5L22,32.7l0.4,1.4l-0.6,0.2L20.9,31.1z"/>
				</g>
				<g>
					<path class="st0" d="M24.8,29.4c0.2-0.1,0.4-0.2,0.7-0.2c0.2,0,0.4,0,0.6,0.1c0.2,0.1,0.4,0.2,0.6,0.3c0.2,0.1,0.3,0.3,0.4,0.5
						c0.1,0.2,0.2,0.4,0.3,0.6c0,0.2,0,0.4,0,0.6s-0.1,0.4-0.2,0.6c-0.1,0.2-0.3,0.3-0.5,0.5c-0.2,0.1-0.4,0.2-0.7,0.2
						c-0.2,0-0.4,0-0.6-0.1c-0.2-0.1-0.4-0.2-0.6-0.3c-0.2-0.1-0.3-0.3-0.4-0.5c-0.1-0.2-0.2-0.4-0.3-0.6c0-0.2,0-0.4,0-0.7
						c0-0.2,0.1-0.4,0.2-0.6C24.4,29.7,24.6,29.6,24.8,29.4z M25,29.9c-0.2,0.1-0.3,0.2-0.3,0.3c-0.1,0.1-0.1,0.3-0.1,0.4
						c0,0.1,0,0.3,0.1,0.5c0,0.2,0.1,0.3,0.2,0.4c0.1,0.1,0.2,0.3,0.3,0.4c0.1,0.1,0.2,0.2,0.4,0.3c0.1,0.1,0.3,0.1,0.4,0.1
						c0.2,0,0.3-0.1,0.5-0.1c0.2-0.1,0.3-0.2,0.3-0.3s0.1-0.3,0.1-0.4c0-0.1,0-0.3-0.1-0.5c0-0.2-0.1-0.3-0.2-0.4
						c-0.1-0.1-0.2-0.3-0.3-0.4c-0.1-0.1-0.2-0.2-0.4-0.3c-0.1-0.1-0.3-0.1-0.4-0.1C25.3,29.7,25.2,29.8,25,29.9z"/>
				</g>
				<g>
					<path class="st0" d="M26.6,28.3l1.1-1.2c0.3-0.3,0.5-0.4,0.8-0.4c0.2,0,0.5,0.1,0.7,0.3c0.1,0.1,0.2,0.2,0.2,0.3
						c0,0.1,0.1,0.2,0.1,0.3c0,0.1,0,0.2,0,0.2s0,0.1-0.1,0.1l0,0c0,0,0.1-0.1,0.1-0.1c0.1,0,0.1,0,0.2,0c0.1,0,0.2,0,0.2,0.1
						c0.1,0,0.2,0.1,0.3,0.2c0.1,0.1,0.3,0.3,0.4,0.4c0.1,0.1,0.3,0.1,0.3,0.1l-0.4,0.5c-0.1,0-0.2-0.1-0.2-0.1
						c-0.1-0.1-0.1-0.1-0.2-0.2c-0.1-0.1-0.2-0.2-0.3-0.3c-0.1-0.1-0.2-0.1-0.3-0.1c-0.1,0-0.2,0-0.3,0c-0.1,0-0.2,0.1-0.3,0.2
						l-0.6,0.6l1,1L29,30.7L26.6,28.3z M28.1,29l0.7-0.7c0.1-0.1,0.2-0.3,0.2-0.4c0-0.1-0.1-0.3-0.2-0.4c-0.1-0.1-0.2-0.1-0.2-0.2
						c-0.1,0-0.1,0-0.2,0c-0.1,0-0.1,0-0.2,0.1c-0.1,0-0.1,0.1-0.2,0.1l-0.7,0.7L28.1,29z"/>
				</g>
				<g>
					<path class="st0" d="M28.8,25.9l1.3-2.1l0.4,0.3l-1,1.6l0.8,0.5l0.9-1.5l0.4,0.3l-0.9,1.5l0.8,0.5l1-1.6l0.4,0.3l-1.3,2.1
						L28.8,25.9z"/>
				</g>
				<g>
					<path class="st0" d="M32.6,23.7c0.1,0,0.2,0.1,0.3,0c0.1,0,0.2,0,0.3-0.1c0.1-0.1,0.1-0.1,0.2-0.2c0.1-0.1,0.1-0.2,0.1-0.3
						c0-0.1,0.1-0.2,0.1-0.3c0-0.1,0-0.2,0-0.2s-0.1-0.1-0.1-0.2c-0.1,0-0.1-0.1-0.2-0.1c-0.1,0-0.2,0-0.3,0c-0.1,0-0.1,0.1-0.2,0.1
						c-0.1,0.1-0.2,0.2-0.3,0.4c-0.1,0.1-0.2,0.3-0.3,0.5c-0.1,0.1-0.2,0.2-0.3,0.3s-0.2,0.1-0.3,0.2c-0.1,0-0.2,0-0.3,0
						c-0.1,0-0.2,0-0.3,0c-0.2-0.1-0.3-0.1-0.4-0.2c-0.1-0.1-0.2-0.2-0.2-0.4c0-0.1-0.1-0.3,0-0.4c0-0.2,0-0.3,0.1-0.4
						c0.1-0.2,0.1-0.3,0.2-0.5c0.1-0.1,0.2-0.2,0.3-0.3c0.1-0.1,0.3-0.1,0.4-0.2c0.1,0,0.3,0,0.5,0l-0.2,0.6c-0.2-0.1-0.4,0-0.5,0.1
						c-0.1,0.1-0.2,0.2-0.3,0.4c0,0.1,0,0.1,0,0.2c0,0.1,0,0.1,0,0.2c0,0.1,0,0.1,0.1,0.2c0,0.1,0.1,0.1,0.2,0.1c0.1,0,0.2,0,0.3,0
						c0.1,0,0.2-0.1,0.2-0.2c0,0,0-0.1,0.1-0.1s0.1-0.2,0.2-0.3c0.1-0.1,0.1-0.2,0.2-0.3c0.1-0.1,0.1-0.2,0.1-0.2
						c0.1-0.1,0.1-0.2,0.2-0.2c0.1-0.1,0.2-0.1,0.3-0.1c0.1,0,0.2,0,0.3,0c0.1,0,0.2,0,0.3,0c0.2,0.1,0.3,0.1,0.4,0.3
						c0.1,0.1,0.2,0.2,0.2,0.4c0,0.1,0.1,0.3,0,0.5c0,0.2,0,0.3-0.1,0.5c-0.1,0.2-0.1,0.3-0.2,0.5c-0.1,0.1-0.2,0.3-0.3,0.4
						c-0.1,0.1-0.3,0.1-0.5,0.2c-0.2,0-0.4,0-0.6-0.1L32.6,23.7z"/>
				</g>
				<g>
					<path class="st0" d="M31.1,20.7l0.3-2.7l0.5,0l-0.1,1.1l2.9,0.3L34.6,20l-2.9-0.3l-0.1,1.1L31.1,20.7z"/>
				</g>
				<g>
					<path class="st0" d="M31.4,17.6L31.2,16c0-0.4,0-0.7,0.1-0.9c0.1-0.2,0.3-0.3,0.6-0.4c0.2,0,0.3,0,0.4,0c0.1,0,0.2,0.1,0.3,0.1
						c0.1,0.1,0.1,0.1,0.2,0.2s0.1,0.1,0.1,0.1l0,0c0-0.1,0-0.1,0-0.2c0-0.1,0.1-0.1,0.1-0.2c0-0.1,0.1-0.1,0.2-0.2
						c0.1,0,0.2-0.1,0.3-0.1c0.2,0,0.4-0.1,0.5-0.1c0.2-0.1,0.3-0.1,0.3-0.2l0.1,0.6c-0.1,0.1-0.1,0.1-0.2,0.1c-0.1,0-0.2,0-0.3,0
						c-0.2,0-0.3,0-0.4,0.1c-0.1,0-0.2,0.1-0.3,0.1c-0.1,0.1-0.1,0.1-0.1,0.2c0,0.1,0,0.2,0,0.3l0.1,0.9l1.4-0.2l0.1,0.6L31.4,17.6z
						 M32.8,16.8l-0.1-1c0-0.2-0.1-0.3-0.2-0.4c-0.1-0.1-0.2-0.1-0.4-0.1c-0.1,0-0.2,0-0.3,0.1c-0.1,0-0.1,0.1-0.1,0.2
						c0,0.1,0,0.1-0.1,0.2c0,0.1,0,0.1,0,0.2l0.1,1L32.8,16.8z"/>
				</g>
				<g>
					<path class="st0" d="M32.5,13l-1.5,1.9l-0.2-0.6l1.1-1.4l-1.7-0.3L30,12l2.4,0.5l1.2-0.5l0.2,0.6L32.5,13z"/>
				</g>
			</g>
			<g>
				<g>
					<path class="st1" d="M15.4,14.3V15h-0.3v-1.7h0.5c0.2,0,0.4,0.1,0.4,0.4c0,0.2,0,0.4-0.2,0.4v0c0.2,0,0.2,0.1,0.2,0.3
						c0,0.1,0,0.5,0.1,0.5v0h-0.3c0-0.1,0-0.3,0-0.4c0-0.1,0-0.2-0.1-0.3C15.6,14.3,15.6,14.3,15.4,14.3L15.4,14.3z M15.4,14.1h0.2
						c0.1,0,0.2-0.1,0.2-0.2c0-0.2-0.1-0.2-0.2-0.2h-0.2V14.1z"/>
				</g>
				<g>
					<path class="st1" d="M16.3,15l0.3-1.7H17l0.3,1.7h-0.3L17,14.6h-0.3L16.6,15H16.3z M16.7,14.4H17l-0.1-0.5c0-0.1,0-0.2,0-0.2
						c0,0,0-0.1,0-0.1h0c0,0,0,0.1,0,0.1c0,0.1,0,0.2,0,0.2L16.7,14.4z"/>
				</g>
				<g>
					<path class="st1" d="M18.3,13.4h0.3V15h-0.3L18,14.4c-0.1-0.2-0.1-0.4-0.2-0.7h0c0,0.1,0,0.3,0,0.5c0,0.2,0,0.3,0,0.5V15h-0.3
						v-1.7h0.3l0.2,0.6c0.1,0.2,0.1,0.4,0.2,0.7h0c0-0.1,0-0.3,0-0.5c0-0.2,0-0.3,0-0.5V13.4z"/>
				</g>
				<g>
					<path class="st1" d="M18.9,14.1c0-0.4,0-0.7,0.5-0.7c0.2,0,0.4,0.1,0.4,0.4c0,0.1,0,0.1,0,0.2h-0.3c0-0.2,0-0.3-0.2-0.3
						c-0.2,0-0.2,0.3-0.2,0.4v0.5c0,0.1,0,0.4,0.2,0.4c0.2,0,0.2-0.2,0.2-0.4h-0.2v-0.2h0.4V15h-0.2v-0.2h0
						c-0.1,0.2-0.2,0.2-0.3,0.2c-0.4,0-0.5-0.3-0.5-0.8V14.1z"/>
				</g>
				<g>
					<path class="st1" d="M20.2,15v-1.7h0.7v0.2h-0.5V14h0.4v0.2h-0.4v0.5h0.5V15H20.2z"/>
				</g>
				<g>
					<path class="st1" d="M14.7,17.5v-1.7h0.8v0.2H15v0.4h0.5v0.2H15v0.7H14.7z"/>
				</g>
				<g>
					<path class="st1" d="M15.8,16.5c0-0.4,0-0.7,0.5-0.7c0.4,0,0.5,0.3,0.5,0.7v0.2c0,0.4,0,0.8-0.5,0.8c-0.4,0-0.5-0.3-0.5-0.8
						V16.5z M16.1,16.9c0,0.1,0,0.4,0.2,0.4c0.2,0,0.2-0.2,0.2-0.4v-0.4c0-0.1,0-0.4-0.2-0.4c-0.2,0-0.2,0.3-0.2,0.4V16.9z"/>
				</g>
				<g>
					<path class="st1" d="M17.4,16.8v0.7h-0.3v-1.7h0.5c0.2,0,0.4,0.1,0.4,0.4c0,0.2,0,0.4-0.2,0.4v0c0.2,0,0.2,0.1,0.2,0.3
						c0,0.1,0,0.5,0.1,0.5v0h-0.3c0-0.1,0-0.3,0-0.4c0-0.1,0-0.2-0.1-0.3C17.6,16.8,17.5,16.8,17.4,16.8L17.4,16.8z M17.4,16.5h0.2
						c0.1,0,0.2-0.1,0.2-0.2c0-0.2-0.1-0.2-0.2-0.2h-0.2V16.5z"/>
				</g>
				<g>
					<path class="st1" d="M18.4,17.5v-1.7h0.7v0.2h-0.5v0.4h0.4v0.2h-0.4v0.5h0.5v0.2H18.4z"/>
				</g>
				<g>
					<path class="st1" d="M20,16.3c0-0.1,0-0.3-0.2-0.3c-0.1,0-0.1,0-0.1,0.2c0,0.1,0.1,0.2,0.2,0.2c0.1,0.1,0.2,0.2,0.3,0.3
						c0.1,0.1,0.1,0.2,0.1,0.3c0,0.3-0.2,0.5-0.4,0.5c-0.3,0-0.4-0.2-0.4-0.5v-0.1h0.3V17c0,0.2,0,0.3,0.2,0.3
						c0.1,0,0.2-0.1,0.2-0.2c0-0.1,0-0.2-0.1-0.2c-0.1-0.1-0.3-0.2-0.4-0.4c0-0.1-0.1-0.2-0.1-0.3c0-0.3,0.1-0.4,0.4-0.4
						c0.4,0,0.4,0.4,0.4,0.5H20z"/>
				</g>
				<g>
					<path class="st1" d="M20.5,15.8h0.9v0.2h-0.3v1.4h-0.3v-1.4h-0.3V15.8z"/>
				</g>
				<g>
					<path class="st1" d="M13.6,19.2c0,0.2,0,0.4,0.1,0.6h0c0,0,0-0.1,0-0.1c0-0.1,0-0.3,0-0.4l0.1-0.9h0.3L13.9,20h-0.3l-0.1-0.7
						c0-0.2,0-0.4-0.1-0.5h0c0,0.2,0,0.4-0.1,0.5L13.2,20h-0.3l-0.3-1.7h0.3l0.1,0.9c0,0.1,0,0.3,0,0.4c0,0,0,0.1,0,0.1h0
						c0-0.2,0-0.4,0.1-0.6l0.1-0.9h0.2L13.6,19.2z"/>
				</g>
				<g>
					<path class="st1" d="M14.3,20l0.3-1.7H15l0.3,1.7H15l-0.1-0.4h-0.3L14.6,20H14.3z M14.7,19.3h0.2l-0.1-0.5c0-0.1,0-0.2,0-0.2
						c0,0,0-0.1,0-0.1h0c0,0,0,0.1,0,0.1c0,0.1,0,0.2,0,0.2L14.7,19.3z"/>
				</g>
				<g>
					<path class="st1" d="M15.4,18.3h0.9v0.2h-0.3V20h-0.3v-1.4h-0.3V18.3z"/>
				</g>
				<g>
					<path class="st1" d="M16.5,20v-1.7h0.7v0.2h-0.5V19h0.4v0.2h-0.4v0.5h0.5V20H16.5z"/>
				</g>
				<g>
					<path class="st1" d="M17.9,19.3V20h-0.3v-1.7h0.5c0.2,0,0.4,0.1,0.4,0.4c0,0.2,0,0.4-0.2,0.4v0c0.2,0,0.2,0.1,0.2,0.3
						c0,0.1,0,0.5,0.1,0.5v0h-0.3c0-0.1,0-0.3,0-0.4c0-0.1,0-0.2-0.1-0.3C18.1,19.3,18,19.3,17.9,19.3L17.9,19.3z M17.9,19h0.2
						c0.1,0,0.2-0.1,0.2-0.2c0-0.2-0.1-0.2-0.2-0.2h-0.2V19z"/>
				</g>
				<g>
					<path class="st1" d="M19.4,18.8c0-0.1,0-0.3-0.2-0.3c-0.1,0-0.1,0-0.1,0.2c0,0.1,0.1,0.2,0.2,0.2c0.1,0.1,0.2,0.2,0.3,0.3
						c0.1,0.1,0.1,0.2,0.1,0.3c0,0.3-0.2,0.5-0.4,0.5c-0.3,0-0.4-0.2-0.4-0.5v-0.1h0.3v0.1c0,0.2,0,0.3,0.2,0.3
						c0.1,0,0.2-0.1,0.2-0.2c0-0.1,0-0.2-0.1-0.2c-0.1-0.1-0.3-0.2-0.4-0.4c0-0.1-0.1-0.2-0.1-0.3c0-0.3,0.1-0.4,0.4-0.4
						c0.4,0,0.4,0.4,0.4,0.5H19.4z"/>
				</g>
				<g>
					<path class="st1" d="M20.1,20v-1.7h0.3V19h0.4v-0.7H21V20h-0.3v-0.8h-0.4V20H20.1z"/>
				</g>
				<g>
					<path class="st1" d="M21.4,20v-1.7h0.7v0.2h-0.5V19h0.4v0.2h-0.4v0.5h0.5V20H21.4z"/>
				</g>
				<g>
					<path class="st1" d="M22.4,20v-1.7H23c0.1,0,0.2,0,0.3,0.2c0.1,0.1,0.1,0.3,0.1,0.6c0,0.3,0,0.7-0.2,0.9c-0.1,0-0.1,0-0.2,0
						H22.4z M22.8,19.7c0.2,0,0.3-0.1,0.3-0.6c0-0.4,0-0.5-0.2-0.5h-0.2v1.2H22.8z"/>
				</g>
				<g>
					<path class="st1" d="M12.5,22.5v-1.7h0.5c0.3,0,0.3,0.2,0.3,0.5c0,0.1,0,0.3-0.1,0.4c-0.1,0.1-0.2,0.1-0.3,0.1h-0.2v0.7H12.5z
						 M12.8,21.5h0.1c0.1,0,0.2-0.1,0.2-0.3c0-0.2-0.1-0.2-0.2-0.2h-0.1V21.5z"/>
				</g>
				<g>
					<path class="st1" d="M14,21.7v0.7h-0.3v-1.7h0.5c0.2,0,0.4,0.1,0.4,0.4c0,0.2,0,0.4-0.2,0.4v0c0.2,0,0.2,0.1,0.2,0.3
						c0,0.1,0,0.5,0.1,0.5v0h-0.3c0-0.1,0-0.3,0-0.4c0-0.1,0-0.2-0.1-0.3C14.2,21.7,14.1,21.7,14,21.7L14,21.7z M14,21.5h0.2
						c0.1,0,0.2-0.1,0.2-0.2c0-0.2-0.1-0.2-0.2-0.2H14V21.5z"/>
				</g>
				<g>
					<path class="st1" d="M15,21.5c0-0.4,0-0.7,0.5-0.7c0.4,0,0.5,0.3,0.5,0.7v0.2c0,0.4,0,0.8-0.5,0.8c-0.4,0-0.5-0.3-0.5-0.8V21.5
						z M15.3,21.9c0,0.1,0,0.4,0.2,0.4c0.2,0,0.2-0.2,0.2-0.4v-0.4c0-0.1,0-0.4-0.2-0.4c-0.2,0-0.2,0.3-0.2,0.4V21.9z"/>
				</g>
				<g>
					<path class="st1" d="M16.2,20.8h0.9V21h-0.3v1.4h-0.3V21h-0.3V20.8z"/>
				</g>
				<g>
					<path class="st1" d="M17.4,22.5v-1.7h0.7V21h-0.5v0.4h0.4v0.2h-0.4v0.5h0.5v0.2H17.4z"/>
				</g>
				<g>
					<path class="st1" d="M19.3,21.9C19.3,21.9,19.3,21.9,19.3,21.9c0,0.4-0.1,0.6-0.4,0.6c-0.4,0-0.5-0.3-0.5-0.8v-0.2
						c0-0.4,0-0.7,0.5-0.7c0.2,0,0.4,0.1,0.4,0.4c0,0,0,0.1,0,0.1H19c0-0.1,0-0.3-0.1-0.3c-0.2,0-0.2,0.3-0.2,0.4v0.5
						c0,0.1,0,0.4,0.2,0.4c0.1,0,0.1-0.3,0.1-0.4H19.3z"/>
				</g>
				<g>
					<path class="st1" d="M19.5,20.8h0.9V21h-0.3v1.4h-0.3V21h-0.3V20.8z"/>
				</g>
				<g>
					<path class="st1" d="M20.7,22.5v-1.7H21v1.7H20.7z"/>
				</g>
				<g>
					<path class="st1" d="M21.3,21.5c0-0.4,0-0.7,0.5-0.7c0.4,0,0.5,0.3,0.5,0.7v0.2c0,0.4,0,0.8-0.5,0.8c-0.4,0-0.5-0.3-0.5-0.8
						V21.5z M21.6,21.9c0,0.1,0,0.4,0.2,0.4c0.2,0,0.2-0.2,0.2-0.4v-0.4c0-0.1,0-0.4-0.2-0.4c-0.2,0-0.2,0.3-0.2,0.4V21.9z"/>
				</g>
				<g>
					<path class="st1" d="M23.3,20.8h0.3v1.7h-0.3L23,21.9c-0.1-0.2-0.1-0.4-0.2-0.7h0c0,0.1,0,0.3,0,0.5c0,0.2,0,0.3,0,0.5v0.3
						h-0.3v-1.7h0.3l0.2,0.6c0.1,0.2,0.1,0.4,0.2,0.7h0c0-0.1,0-0.3,0-0.5c0-0.2,0-0.3,0-0.5V20.8z"/>
				</g>
			</g>
			<g>
				<circle class="st0" cx="6.5" cy="9.1" r="0.5"/>
			</g>
			<g>
				<circle class="st0" cx="29.9" cy="9.1" r="0.5"/>
			</g>
		</g>
	</g>
</g>
</svg>
