<?xml version="1.0" encoding="utf-8"?>
<!-- Generator: Adobe Illustrator 23.1.1, SVG Export Plug-In . SVG Version: 6.00 Build 0)  -->
<svg version="1.1" id="Layer_1" xmlns="http://www.w3.org/2000/svg" xmlns:xlink="http://www.w3.org/1999/xlink" x="0px" y="0px"
	 width="90px" height="90px" viewBox="0 0 90 90" style="enable-background:new 0 0 90 90;" xml:space="preserve">
<style type="text/css">
	.st0{fill:#006735;}
	.st1{clip-path:url(#SVGID_2_);fill:#006735;}
	.st2{clip-path:url(#SVGID_4_);fill:#006735;}
	.st3{clip-path:url(#SVGID_6_);fill:#006735;}
</style>
<g>
	<path class="st0" d="M45,3c23.2,0,42,18.8,42,42S68.2,87,45,87S3,68.2,3,45S21.8,3,45,3 M45,0C20.1,0,0,20.1,0,45s20.1,45,45,45
		s45-20.1,45-45S69.9,0,45,0L45,0z"/>
</g>
<g>
	<g>
		<defs>
			<path id="SVGID_1_" d="M70.5,49.8l-7.2-6c-3.8-3-9.1-3-12.8,0l-4.7,3.9c-0.2,0.2-0.4,0.5-0.4,0.8c0,0.3,0.1,0.6,0.4,0.8l5.5,4.7
				c0.3,0.2,0.7,0.4,1,0.4h17.5c0.6,0,1.1-0.5,1.1-1.1v-2.7C70.9,50.3,70.8,50,70.5,49.8z"/>
		</defs>
		<use xlink:href="#SVGID_1_"  style="overflow:visible;fill:#006735;"/>
		<clipPath id="SVGID_2_">
			<use xlink:href="#SVGID_1_"  style="overflow:visible;"/>
		</clipPath>
		<rect x="34.5" y="30.7" class="st1" width="47.2" height="34.5"/>
	</g>
	<g>
		<defs>
			<path id="SVGID_3_" d="M20.2,57.7h29.2c0.5,0,0.9-0.3,1-0.7c0.2-0.4,0-0.9-0.3-1.2L39.5,47c-3.8-3-9.1-3-12.8,0l-7.2,6
				c-0.2,0.2-0.4,0.5-0.4,0.8v2.7C19.1,57.2,19.6,57.7,20.2,57.7z"/>
		</defs>
		<use xlink:href="#SVGID_3_"  style="overflow:visible;fill:#006735;"/>
		<clipPath id="SVGID_4_">
			<use xlink:href="#SVGID_3_"  style="overflow:visible;"/>
		</clipPath>
		<rect x="8.3" y="34" class="st2" width="52.9" height="34.5"/>
	</g>
	<g>
		<defs>
			<circle id="SVGID_5_" cx="51.5" cy="32.8" r="6.5"/>
		</defs>
		<use xlink:href="#SVGID_5_"  style="overflow:visible;fill:#006735;"/>
		<clipPath id="SVGID_6_">
			<use xlink:href="#SVGID_5_"  style="overflow:visible;"/>
		</clipPath>
		<rect x="34.2" y="15.5" class="st3" width="34.6" height="34.6"/>
	</g>
</g>
</svg>
