<?xml version="1.0" encoding="utf-8"?>
<!-- Generator: Adobe Illustrator 23.1.1, SVG Export Plug-In . SVG Version: 6.00 Build 0)  -->
<svg version="1.1" id="Layer_1" xmlns="http://www.w3.org/2000/svg" xmlns:xlink="http://www.w3.org/1999/xlink" x="0px" y="0px"
	 width="90px" height="90px" viewBox="0 0 90 90" style="enable-background:new 0 0 90 90;" xml:space="preserve">
<style type="text/css">
	.st0{fill:#006735;}
	.st1{clip-path:url(#SVGID_2_);fill:#006735;}
	.st2{clip-path:url(#SVGID_4_);fill:#006735;}
	.st3{clip-path:url(#SVGID_6_);fill:#006735;}
	.st4{clip-path:url(#SVGID_8_);fill:#006735;}
	.st5{clip-path:url(#SVGID_10_);fill:#006735;}
	.st6{clip-path:url(#SVGID_12_);fill:#006735;}
	.st7{clip-path:url(#SVGID_14_);fill:#006735;}
</style>
<g>
	<path class="st0" d="M45,3c23.2,0,42,18.8,42,42S68.2,87,45,87S3,68.2,3,45S21.8,3,45,3 M45,0C20.1,0,0,20.1,0,45s20.1,45,45,45
		s45-20.1,45-45S69.9,0,45,0L45,0z"/>
</g>
<g>
	<g>
		<defs>
			<path id="SVGID_1_" d="M66.1,36.9L60.2,31c-0.1-0.1-0.2-0.2-0.2-0.3l-3-7.8c-0.4-0.9-1.3-1.4-2.3-1.2c-3,0.7-5.7,2.1-7.9,4.2
				c-2,2-3.3,4.6-3.7,7.4c-0.1,0.9,0.4,1.7,1.2,2.1l7.9,3c0.1,0,0.2,0.1,0.3,0.2l5.9,5.9c0.5,0.6,1.3,0.9,2.1,0.9s1.5-0.3,2.1-0.9
				l3.5-3.5C67.3,40,67.3,38.1,66.1,36.9z"/>
		</defs>
		<use xlink:href="#SVGID_1_"  style="overflow:visible;fill:#006735;"/>
		<clipPath id="SVGID_2_">
			<use xlink:href="#SVGID_1_"  style="overflow:visible;"/>
		</clipPath>
		<rect x="33.3" y="11.8" class="st1" width="43.5" height="43.4"/>
	</g>
	<g>
		<defs>
			<path id="SVGID_3_" d="M32.6,56.6c-0.4,0.4-1,0.6-1.6,0.6s-1.1-0.2-1.6-0.6l-1.8-1.8c-0.4-0.4-0.6-1-0.6-1.6
				c0-0.6,0.2-1.1,0.6-1.6c0.4-0.4,1-0.7,1.6-0.6c0.6,0,1.1,0.2,1.5,0.6l1.8,1.8c0.4,0.4,0.6,1,0.6,1.6S33,56.2,32.6,56.6z"/>
		</defs>
		<use xlink:href="#SVGID_3_"  style="overflow:visible;fill:#006735;"/>
		<clipPath id="SVGID_4_">
			<use xlink:href="#SVGID_3_"  style="overflow:visible;"/>
		</clipPath>
		<rect x="17.2" y="41.3" class="st2" width="25.8" height="25.8"/>
	</g>
	<g>
		<defs>
			<path id="SVGID_5_" d="M30.4,49.3c-0.9-0.9-0.9-2.3,0-3.1c0.9-0.9,2.3-0.9,3.1,0l3.2,3.2c0.4,0.4,0.6,1,0.6,1.5
				c0,0.6-0.2,1.1-0.6,1.6c-0.9,0.8-2.2,0.8-3.1,0L30.4,49.3z"/>
		</defs>
		<use xlink:href="#SVGID_5_"  style="overflow:visible;fill:#006735;"/>
		<clipPath id="SVGID_6_">
			<use xlink:href="#SVGID_5_"  style="overflow:visible;"/>
		</clipPath>
		<rect x="20" y="35.7" class="st3" width="27.2" height="27.1"/>
	</g>
	<g>
		<defs>
			<path id="SVGID_7_" d="M40.9,48.3c-0.4,0.4-1,0.6-1.6,0.6c-0.6,0-1.1-0.2-1.6-0.6l-3.2-3.2c-0.4-0.4-0.6-1-0.6-1.6
				s0.2-1.1,0.6-1.6c0.4-0.4,1-0.6,1.5-0.6c0.6,0,1.1,0.2,1.6,0.6l3.2,3.2c0.4,0.4,0.6,1,0.6,1.6S41.3,47.9,40.9,48.3z"/>
		</defs>
		<use xlink:href="#SVGID_7_"  style="overflow:visible;fill:#006735;"/>
		<clipPath id="SVGID_8_">
			<use xlink:href="#SVGID_7_"  style="overflow:visible;"/>
		</clipPath>
		<rect x="24.1" y="31.6" class="st4" width="27.2" height="27.2"/>
	</g>
	<g>
		<defs>
			<path id="SVGID_9_" d="M45,43.4c0,0.1,0,0.2,0,0.2c0,0.4-0.2,0.8-0.6,0.9c-0.8,0.4-1.8,0.2-2.5-0.4l-1.8-1.8
				c-0.4-0.4-0.7-1-0.6-1.5c0-0.6,0.2-1.2,0.6-1.6c0.9-0.8,2.2-0.8,3.1,0L45,41c0.3,0.3,0.3,0.6,0.2,1C45,42.4,45,42.9,45,43.4z"/>
		</defs>
		<use xlink:href="#SVGID_9_"  style="overflow:visible;fill:#006735;"/>
		<clipPath id="SVGID_10_">
			<use xlink:href="#SVGID_9_"  style="overflow:visible;"/>
		</clipPath>
		<rect x="29.7" y="28.8" class="st5" width="25.3" height="25.7"/>
	</g>
	<g>
		<defs>
			<path id="SVGID_11_" d="M48.5,50.4c0.2-0.2,0.3-0.4,0.3-0.7c0-0.3-0.1-0.5-0.3-0.7l-2.1-2.1c-0.2-0.2-0.3-0.4-0.5-0.5
				c-0.3-0.4-0.7-0.5-1.1-0.3c-0.3,0.1-0.6,0.2-0.9,0.2c-0.2,0-0.4,0.1-0.6,0.3l0,0c-0.2,0.2-0.3,0.4-0.3,0.6
				c-0.1,0.8-0.4,1.6-1,2.2c-0.6,0.6-1.4,0.9-2.2,1c-0.2,0-0.4,0.1-0.6,0.3l-0.1,0.1c-0.2,0.2-0.3,0.4-0.3,0.6
				c-0.1,0.8-0.5,1.6-1,2.2c-0.6,0.6-1.3,0.9-2.2,1c-0.2,0-0.4,0.1-0.6,0.3l-0.1,0.1c-0.2,0.2-0.2,0.4-0.3,0.6
				c-0.2,1.7-1.5,3-3.1,3.2c-0.2,0-0.4,0.1-0.6,0.3l-7.7,7.7c-0.3,0.3-0.4,0.7-0.2,1.1c0.1,0.4,0.5,0.6,0.9,0.6l6,0
				c0.3,0,0.5-0.1,0.7-0.3L48.5,50.4z"/>
		</defs>
		<use xlink:href="#SVGID_11_"  style="overflow:visible;fill:#006735;"/>
		<clipPath id="SVGID_12_">
			<use xlink:href="#SVGID_11_"  style="overflow:visible;"/>
		</clipPath>
		<rect x="13.2" y="36.2" class="st6" width="45.3" height="42"/>
	</g>
	<g>
		<defs>
			<path id="SVGID_13_" d="M55.4,65.6l2.5,2.8H40.6c-0.3,0-0.5-0.1-0.7-0.3l-2.5-2.5c-0.2-0.2-0.3-0.4-0.3-0.7
				c0-0.3,0.1-0.5,0.3-0.7l13.1-13.1c0.8-0.8,0.8-2,0-2.8l-2.8-2.8c-1.1-1.2-1-3,0.1-4.1c1.1-1.1,2.9-1.1,4.1-0.1l4.1,4.1
				c1.5,1.5,2.3,3.5,2.3,5.5c0,2.1-0.8,4.1-2.3,5.5l-0.7,0.7C53.1,59.6,53.1,63.3,55.4,65.6z"/>
		</defs>
		<use xlink:href="#SVGID_13_"  style="overflow:visible;fill:#006735;"/>
		<clipPath id="SVGID_14_">
			<use xlink:href="#SVGID_13_"  style="overflow:visible;"/>
		</clipPath>
		<rect x="27.3" y="30.8" class="st7" width="40.8" height="47.3"/>
	</g>
</g>
</svg>
