<?xml version="1.0" encoding="utf-8"?>
<!-- Generator: Adobe Illustrator 23.1.1, SVG Export Plug-In . SVG Version: 6.00 Build 0)  -->
<svg version="1.1" id="Layer_1" xmlns="http://www.w3.org/2000/svg" xmlns:xlink="http://www.w3.org/1999/xlink" x="0px" y="0px"
	 width="90px" height="90px" viewBox="0 0 90 90" style="enable-background:new 0 0 90 90;" xml:space="preserve">
<style type="text/css">
	.st0{fill:#006735;}
	.st1{clip-path:url(#SVGID_2_);fill:#006735;}
	.st2{clip-path:url(#SVGID_4_);fill:#006735;}
	.st3{clip-path:url(#SVGID_6_);fill:#006735;}
</style>
<g>
	<path class="st0" d="M45,3c23.2,0,42,18.8,42,42S68.2,87,45,87S3,68.2,3,45S21.8,3,45,3 M45,0C20.1,0,0,20.1,0,45s20.1,45,45,45
		s45-20.1,45-45S69.9,0,45,0L45,0z"/>
</g>
<g>
	<g>
		<defs>
			<path id="SVGID_1_" d="M43,37.5v1.1c0,0.3,0.1,0.6,0.4,0.7c2.7,2,4.5,5,4.9,8.3c0,0.3,0.2,0.5,0.5,0.7c0.3,0.1,0.6,0.1,0.8,0
				c3.5-1.8,5.7-5.4,5.7-9.3c0-0.5-0.4-0.9-0.9-0.9c-2.6,0-5.1,1-7.1,2.7c-0.1,0.1-0.3,0.1-0.5,0.1c-0.2-0.1-0.3-0.2-0.3-0.4v-3
				c0-0.3,0.1-0.7,0.3-1c2.6-4.1,2-9.5-1.4-12.9c-0.4-0.4-0.9-0.4-1.3,0c-3.4,3.4-4,8.8-1.4,12.9C42.9,36.9,43,37.2,43,37.5z"/>
		</defs>
		<use xlink:href="#SVGID_1_"  style="overflow:visible;fill:#006735;"/>
		<clipPath id="SVGID_2_">
			<use xlink:href="#SVGID_1_"  style="overflow:visible;"/>
		</clipPath>
		<rect x="32.1" y="14.4" class="st1" width="32.2" height="43.1"/>
	</g>
	<g>
		<defs>
			<path id="SVGID_3_" d="M46.6,53.6v-4.4c0-5.8-4.7-10.5-10.5-10.5c-0.5,0-0.9,0.4-0.9,0.9c0,4.3,2.6,8.2,6.7,9.8
				c0.7,0.3,1.1,0.9,1.1,1.7v4.2c0,0.2-0.1,0.3-0.3,0.4c-0.2,0.1-0.4,0-0.5-0.1c-2.6-2.7-6.2-4.2-9.9-4.2c-0.7,0-1.4,0.6-1.4,1.4
				C30.9,59,35,64.4,41,66.1c0.3,0.1,0.5,0,0.8-0.1c0.2-0.2,0.3-0.4,0.3-0.7c0-3.9,1.4-7.6,4-10.4C46.4,54.5,46.6,54.1,46.6,53.6z"
				/>
		</defs>
		<use xlink:href="#SVGID_3_"  style="overflow:visible;fill:#006735;"/>
		<clipPath id="SVGID_4_">
			<use xlink:href="#SVGID_3_"  style="overflow:visible;"/>
		</clipPath>
		<rect x="21.9" y="29.7" class="st2" width="33.6" height="45.4"/>
	</g>
	<g>
		<defs>
			<path id="SVGID_5_" d="M57.7,51.4c-7.6,0-13.8,6.2-13.8,13.8c0,0.7,0.6,1.4,1.4,1.4c7.6,0,13.8-6.2,13.8-13.8
				c0-0.4-0.1-0.7-0.4-1C58.4,51.6,58.1,51.4,57.7,51.4z"/>
		</defs>
		<use xlink:href="#SVGID_5_"  style="overflow:visible;fill:#006735;"/>
		<clipPath id="SVGID_6_">
			<use xlink:href="#SVGID_5_"  style="overflow:visible;"/>
		</clipPath>
		<rect x="34.9" y="42.4" class="st3" width="33.2" height="33.2"/>
	</g>
</g>
</svg>
