<?xml version="1.0" encoding="utf-8"?>
<!-- Generator: Adobe Illustrator 23.1.1, SVG Export Plug-In . SVG Version: 6.00 Build 0)  -->
<svg version="1.1" id="Layer_1" xmlns="http://www.w3.org/2000/svg" xmlns:xlink="http://www.w3.org/1999/xlink" x="0px" y="0px"
	 width="90px" height="90px" viewBox="0 0 90 90" style="enable-background:new 0 0 90 90;" xml:space="preserve">
<style type="text/css">
	.st0{fill:#006735;}
	.st1{clip-path:url(#SVGID_2_);fill:#006735;}
	.st2{clip-path:url(#SVGID_4_);fill:#006735;}
</style>
<g>
	<path class="st0" d="M45,3c23.2,0,42,18.8,42,42S68.2,87,45,87S3,68.2,3,45S21.8,3,45,3 M45,0C20.1,0,0,20.1,0,45s20.1,45,45,45
		s45-20.1,45-45S69.9,0,45,0L45,0z"/>
</g>
<g>
	<g>
		<defs>
			<path id="SVGID_1_" d="M27.7,35.3h9.1c2.8,0,5.1-2.2,5.1-4.9s-2.3-4.9-5.1-4.9c-0.6,0-1.3,0.1-1.9,0.3c-0.2,0.1-0.3,0.1-0.5,0
				c-0.2-0.1-0.3-0.2-0.3-0.4c-1.5-3.1-5.1-4.6-8.5-3.6c-3.4,1-5.5,4.2-5,7.5C21.2,32.8,24.2,35.2,27.7,35.3z"/>
		</defs>
		<use xlink:href="#SVGID_1_"  style="overflow:visible;fill:#006735;"/>
		<clipPath id="SVGID_2_">
			<use xlink:href="#SVGID_1_"  style="overflow:visible;"/>
		</clipPath>
		<rect x="10.5" y="11.4" class="st1" width="41.6" height="34"/>
	</g>
	<g>
		<defs>
			<path id="SVGID_3_" d="M37.9,64c0,0.3-0.2,0.5-0.5,0.5h-5.1c-0.3,0-0.5-0.2-0.5-0.5v-5.1c0-1.1,0.9-1.9,2-1.9h2
				c1.1,0,2,0.9,2,1.9V64z M67.3,64.5h-3.6c-0.3,0-0.5-0.2-0.5-0.5v-2.3c0-0.2,0.1-0.4,0.3-0.4c3.3-1,5.6-3.9,5.8-7.2
				c0-3.3-5.4-15.7-7.7-20.8c-0.3-0.5-0.8-0.8-1.4-0.8c-0.6,0-1.1,0.3-1.4,0.8c-2.3,5.2-7.7,17.5-7.7,20.8c0.2,3.6,2.8,6.7,6.5,7.4
				c0.2,0,0.3,0,0.4-0.1c0.1-0.1,0.2-0.2,0.2-0.4v-3.4c0-0.1-0.1-0.3-0.1-0.3l-2.6-2.5c-0.4-0.4-0.4-1,0-1.4c0.4-0.4,1-0.4,1.4,0
				c0,0,0.8,0.8,1,0.9s0.4,0,0.4-0.3v-6.9c0-0.5,0.5-1,1-1c0.6,0,1,0.4,1,1V64c0,0.3-0.2,0.5-0.5,0.5H47.5c-0.3,0-0.5-0.2-0.5-0.5
				v-8.3c0-0.3,0.3-0.1,0.3-0.1c0.4,0.4,1,0.4,1.4,0c0.4-0.4,0.4-1,0-1.4l-2-1.9l-10.5-10c-0.8-0.8-2.1-0.8-2.9,0L23,52.4l-2,1.9
				c-0.4,0.4-0.4,1,0,1.4c0.4,0.4,1,0.4,1.4,0c0,0,0.3-0.3,0.3,0v8.3c0,0.2-0.2,0.4-0.5,0.5c-1,0.2-1.7,1.1-1.6,2.1
				c0.1,1,1,1.7,2,1.7h44.7c1.1,0,2-0.9,2-1.9C69.4,65.4,68.5,64.5,67.3,64.5z"/>
		</defs>
		<use xlink:href="#SVGID_3_"  style="overflow:visible;fill:#006735;"/>
		<clipPath id="SVGID_4_">
			<use xlink:href="#SVGID_3_"  style="overflow:visible;"/>
		</clipPath>
		<rect x="10.5" y="22.2" class="st2" width="69.1" height="56.3"/>
	</g>
</g>
</svg>
