<?xml version="1.0" encoding="utf-8"?>
<!-- Generator: Adobe Illustrator 23.1.1, SVG Export Plug-In . SVG Version: 6.00 Build 0)  -->
<svg version="1.1" id="Layer_1" xmlns="http://www.w3.org/2000/svg" xmlns:xlink="http://www.w3.org/1999/xlink" x="0px" y="0px"
	 width="90px" height="90px" viewBox="0 0 90 90" style="enable-background:new 0 0 90 90;" xml:space="preserve">
<style type="text/css">
	.st0{fill:#006735;}
	.st1{clip-path:url(#SVGID_2_);fill:#006735;}
	.st2{clip-path:url(#SVGID_4_);fill:#006735;}
</style>
<g>
	<path class="st0" d="M45,3c23.2,0,42,18.8,42,42S68.2,87,45,87S3,68.2,3,45S21.8,3,45,3 M45,0C20.1,0,0,20.1,0,45s20.1,45,45,45
		s45-20.1,45-45S69.9,0,45,0L45,0z"/>
</g>
<g>
	<g>
		<defs>
			<path id="SVGID_1_" d="M54.2,51.1c-2.2,0-4.1,1.8-4.1,4.1c0,0.3-0.2,0.6-0.4,0.8l-0.8,0.6c-0.2,0.1-0.4,0.1-0.5,0
				c-0.2-0.1-0.3-0.3-0.3-0.5V51c0-0.3-0.1-0.6-0.3-0.8c-0.2-0.2-0.5-0.3-0.8-0.3c-0.6,0.1-1.3,0.1-1.9,0.1c-0.6,0-1.3,0-1.9-0.1
				c-0.3,0-0.6,0.1-0.8,0.3c-0.2,0.2-0.3,0.5-0.3,0.8v15.4c0,1.7,1.4,3.1,3.1,3.1c1.7,0,3.1-1.4,3.1-3.1v-3.6c0-0.3,0.2-0.6,0.4-0.8
				l3.7-2.7c0.3-0.2,0.6-0.3,0.9-0.2c1.5,0.4,3.2,0,4.2-1.2c1-1.2,1.3-2.9,0.6-4.3C57.2,52,55.7,51.1,54.2,51.1L54.2,51.1z"/>
		</defs>
		<use xlink:href="#SVGID_1_"  style="overflow:visible;fill:#006735;"/>
		<clipPath id="SVGID_2_">
			<use xlink:href="#SVGID_1_"  style="overflow:visible;"/>
		</clipPath>
		<rect x="31.8" y="39.8" class="st1" width="36.6" height="39.8"/>
	</g>
	<g>
		<defs>
			<path id="SVGID_3_" d="M58.9,30.9c-0.5,0.1-1-0.2-1.2-0.7c-1.4-4.9-5.5-8.6-10.6-9.4c-5.1-0.8-10.1,1.4-13,5.6
				c-0.2,0.3-0.6,0.5-1,0.4c-4.5-0.6-8.8,1.8-10.7,6c-1.8,4.1-0.7,9,2.7,11.9c3.5,2.9,8.4,3.2,12.2,0.7c0.3-0.2,0.7-0.2,1.1,0
				c4.6,2.6,10.4,2.2,14.6-1c0.4-0.3,0.9-0.2,1.2,0.1c2.6,2.9,6.9,3.5,10.3,1.4c3.3-2,4.7-6.2,3.3-9.8
				C66.5,32.4,62.7,30.2,58.9,30.9L58.9,30.9z"/>
		</defs>
		<use xlink:href="#SVGID_3_"  style="overflow:visible;fill:#006735;"/>
		<clipPath id="SVGID_4_">
			<use xlink:href="#SVGID_3_"  style="overflow:visible;"/>
		</clipPath>
		<rect x="11.4" y="10.4" class="st2" width="67.1" height="46.8"/>
	</g>
</g>
</svg>
