<?xml version="1.0" encoding="utf-8"?>
<!-- Generator: Adobe Illustrator 23.1.1, SVG Export Plug-In . SVG Version: 6.00 Build 0)  -->
<svg version="1.1" id="Layer_1" xmlns="http://www.w3.org/2000/svg" xmlns:xlink="http://www.w3.org/1999/xlink" x="0px" y="0px"
	 width="90px" height="90px" viewBox="0 0 90 90" style="enable-background:new 0 0 90 90;" xml:space="preserve">
<style type="text/css">
	.st0{fill:#006735;}
	.st1{clip-path:url(#SVGID_2_);fill:#006735;}
	.st2{clip-path:url(#SVGID_4_);fill:#006735;}
	.st3{clip-path:url(#SVGID_6_);fill:#006735;}
	.st4{clip-path:url(#SVGID_8_);fill:#006735;}
	.st5{clip-path:url(#SVGID_10_);fill:#006735;}
	.st6{clip-path:url(#SVGID_12_);fill:#006735;}
	.st7{clip-path:url(#SVGID_14_);fill:#006735;}
	.st8{clip-path:url(#SVGID_16_);fill:#006735;}
</style>
<g>
	<path class="st0" d="M45,3c23.2,0,42,18.8,42,42S68.2,87,45,87S3,68.2,3,45S21.8,3,45,3 M45,0C20.1,0,0,20.1,0,45s20.1,45,45,45
		s45-20.1,45-45S69.9,0,45,0L45,0z"/>
</g>
<g>
	<g>
		<defs>
			<path id="SVGID_1_" d="M45,38.8c-1.1,0-2.1,0.9-2.1,2.1v27c0,1.1,0.9,2.1,2.1,2.1c1.1,0,2.1-0.9,2.1-2.1v-27
				C47.1,39.7,46.1,38.8,45,38.8z"/>
		</defs>
		<use xlink:href="#SVGID_1_"  style="overflow:visible;fill:#006735;"/>
		<clipPath id="SVGID_2_">
			<use xlink:href="#SVGID_1_"  style="overflow:visible;"/>
		</clipPath>
		<rect x="32.5" y="28.4" class="st1" width="25" height="52"/>
	</g>
	<g>
		<defs>
			<path id="SVGID_3_" d="M46.6,20.6c-0.9-0.8-2.3-0.8-3.3,0c-2.4,1.8-3.9,4.5-4.1,7.4c0,4.8,4.7,7.9,4.9,8c0.5,0.3,1.2,0.3,1.7,0
				c0.2-0.1,4.9-3.2,4.9-8C50.5,25.1,49,22.4,46.6,20.6z"/>
		</defs>
		<use xlink:href="#SVGID_3_"  style="overflow:visible;fill:#006735;"/>
		<clipPath id="SVGID_4_">
			<use xlink:href="#SVGID_3_"  style="overflow:visible;"/>
		</clipPath>
		<rect x="28.9" y="9.6" class="st2" width="32.2" height="37.1"/>
	</g>
	<g>
		<defs>
			<path id="SVGID_5_" d="M32.6,58.4c-3-0.8-6.2-0.7-9.2,0.3c-0.8,0.3-1.4,0.9-1.7,1.7c-0.3,0.8-0.1,1.7,0.4,2.3
				c1.8,2.6,4.4,4.5,7.3,5.6c3,0.9,6.2,0.7,9.2-0.3c0.8-0.3,1.4-0.9,1.7-1.7c0.3-0.8,0.1-1.7-0.4-2.3C38.1,61.5,35.6,59.5,32.6,58.4
				z"/>
		</defs>
		<use xlink:href="#SVGID_5_"  style="overflow:visible;fill:#006735;"/>
		<clipPath id="SVGID_6_">
			<use xlink:href="#SVGID_5_"  style="overflow:visible;"/>
		</clipPath>
		<rect x="11.2" y="47.5" class="st3" width="39.7" height="31.8"/>
	</g>
	<g>
		<defs>
			<path id="SVGID_7_" d="M32.6,46c-3-0.8-6.2-0.7-9.2,0.3c-0.8,0.3-1.4,0.9-1.7,1.7c-0.3,0.8-0.1,1.7,0.4,2.3
				c1.8,2.6,4.4,4.5,7.3,5.6c3,0.9,6.2,0.7,9.2-0.3c0.8-0.3,1.4-0.9,1.7-1.7c0.3-0.8,0.1-1.7-0.4-2.3C38.1,49,35.6,47,32.6,46z"/>
		</defs>
		<use xlink:href="#SVGID_7_"  style="overflow:visible;fill:#006735;"/>
		<clipPath id="SVGID_8_">
			<use xlink:href="#SVGID_7_"  style="overflow:visible;"/>
		</clipPath>
		<rect x="11.2" y="35" class="st4" width="39.7" height="31.8"/>
	</g>
	<g>
		<defs>
			<path id="SVGID_9_" d="M31.2,43.2c2.5,0.7,5.1,0.6,7.5-0.2c0.7-0.2,1.3-0.8,1.5-1.5c0.2-0.7,0.1-1.5-0.4-2.2
				c-1.5-2.1-3.6-3.7-6-4.6c-2.5-0.7-5.1-0.6-7.5,0.2c-0.7,0.2-1.3,0.8-1.5,1.5c-0.2,0.7-0.1,1.5,0.4,2.2
				C26.7,40.7,28.8,42.3,31.2,43.2z"/>
		</defs>
		<use xlink:href="#SVGID_9_"  style="overflow:visible;fill:#006735;"/>
		<clipPath id="SVGID_10_">
			<use xlink:href="#SVGID_9_"  style="overflow:visible;"/>
		</clipPath>
		<rect x="14.4" y="23.8" class="st5" width="36.5" height="30.2"/>
	</g>
	<g>
		<defs>
			<path id="SVGID_11_" d="M57.4,58.4c3-0.8,6.2-0.7,9.2,0.3c0.8,0.3,1.4,0.9,1.7,1.7c0.3,0.8,0.1,1.7-0.4,2.3
				c-1.8,2.6-4.4,4.5-7.3,5.6c-3,0.9-6.2,0.7-9.2-0.3c-0.8-0.3-1.4-0.9-1.7-1.7c-0.3-0.8-0.1-1.7,0.4-2.3
				C51.9,61.5,54.4,59.5,57.4,58.4z"/>
		</defs>
		<use xlink:href="#SVGID_11_"  style="overflow:visible;fill:#006735;"/>
		<clipPath id="SVGID_12_">
			<use xlink:href="#SVGID_11_"  style="overflow:visible;"/>
		</clipPath>
		<rect x="39.1" y="47.5" class="st6" width="39.7" height="31.8"/>
	</g>
	<g>
		<defs>
			<path id="SVGID_13_" d="M57.4,46c3-0.8,6.2-0.7,9.2,0.3c0.8,0.3,1.4,0.9,1.7,1.7c0.3,0.8,0.1,1.7-0.4,2.3
				c-1.8,2.6-4.4,4.5-7.3,5.6c-3,0.9-6.2,0.7-9.2-0.3c-0.8-0.3-1.4-0.9-1.7-1.7c-0.3-0.8-0.1-1.7,0.4-2.3C51.9,49,54.4,47,57.4,46z"
				/>
		</defs>
		<use xlink:href="#SVGID_13_"  style="overflow:visible;fill:#006735;"/>
		<clipPath id="SVGID_14_">
			<use xlink:href="#SVGID_13_"  style="overflow:visible;"/>
		</clipPath>
		<rect x="39.1" y="35" class="st7" width="39.7" height="31.8"/>
	</g>
	<g>
		<defs>
			<path id="SVGID_15_" d="M58.8,43.2c-2.5,0.7-5.1,0.6-7.5-0.2c-0.7-0.2-1.3-0.8-1.5-1.5c-0.2-0.7-0.1-1.5,0.4-2.2
				c1.5-2.1,3.6-3.7,6-4.6c2.5-0.7,5.1-0.6,7.5,0.2c0.7,0.2,1.3,0.8,1.5,1.5c0.2,0.7,0.1,1.5-0.4,2.2C63.3,40.7,61.2,42.3,58.8,43.2
				z"/>
		</defs>
		<use xlink:href="#SVGID_15_"  style="overflow:visible;fill:#006735;"/>
		<clipPath id="SVGID_16_">
			<use xlink:href="#SVGID_15_"  style="overflow:visible;"/>
		</clipPath>
		<rect x="39.2" y="23.8" class="st8" width="36.5" height="30.2"/>
	</g>
</g>
</svg>
