<?xml version="1.0" encoding="utf-8"?>
<!-- Generator: Adobe Illustrator 23.1.1, SVG Export Plug-In . SVG Version: 6.00 Build 0)  -->
<svg version="1.1" id="Layer_1" xmlns="http://www.w3.org/2000/svg" xmlns:xlink="http://www.w3.org/1999/xlink" x="0px" y="0px"
	 width="90px" height="90px" viewBox="0 0 90 90" style="enable-background:new 0 0 90 90;" xml:space="preserve">
<style type="text/css">
	.st0{fill:#006735;}
</style>
<g>
	<g>
		<path class="st0" d="M45,22c-0.9-0.6-2.1-0.5-3,0.2c-0.9,0.7-1.3,1.8-1,2.8c1.8,5.7,1.8,11.9,0,17.6c-0.3,0.7-0.9,1.2-1.7,1.3
			c-0.8,0.1-1.5-0.2-2-0.8c-0.4-0.5-0.8-1.1-1.2-1.6c-0.5-0.7-1.4-1.2-2.4-1.1c-0.9,0.1-1.8,0.6-2.2,1.4c-1.9,2.9-3.1,6.2-3.5,9.7
			c0,9.4,7.6,17,17,17c9.4,0,17-7.6,17-17C61.7,39.4,55.3,28.3,45,22z"/>
	</g>
	<path class="st0" d="M45,3c23.2,0,42,18.8,42,42S68.2,87,45,87S3,68.2,3,45S21.8,3,45,3 M45,0C20.1,0,0,20.1,0,45s20.1,45,45,45
		s45-20.1,45-45S69.9,0,45,0L45,0z"/>
</g>
</svg>
