<?xml version="1.0" encoding="utf-8"?>
<!-- Generator: Adobe Illustrator 23.1.1, SVG Export Plug-In . SVG Version: 6.00 Build 0)  -->
<svg version="1.1" id="Layer_1" xmlns="http://www.w3.org/2000/svg" xmlns:xlink="http://www.w3.org/1999/xlink" x="0px" y="0px"
	 width="90px" height="90px" viewBox="0 0 90 90" style="enable-background:new 0 0 90 90;" xml:space="preserve">
<style type="text/css">
	.st0{fill:#006735;}
	.st1{clip-path:url(#SVGID_4_);fill:#006735;}
	.st2{clip-path:url(#SVGID_6_);fill:#006735;}
</style>
<g>
	<path class="st0" d="M45,3c23.2,0,42,18.8,42,42S68.2,87,45,87S3,68.2,3,45S21.8,3,45,3 M45,0C20.1,0,0,20.1,0,45s20.1,45,45,45
		s45-20.1,45-45S69.9,0,45,0L45,0z"/>
</g>
<g>
	<g>
		<g>
			<defs>
				<path id="SVGID_1_" d="M58.7,41.1c-5.4,0-9.7,4.4-9.7,9.7c0,6.2,8.7,14.9,9.1,15.3c0.4,0.4,1,0.4,1.4,0s9.1-9.1,9.1-15.3
					C68.4,45.5,64,41.1,58.7,41.1z"/>
			</defs>
			<clipPath id="SVGID_2_">
				<use xlink:href="#SVGID_1_"  style="overflow:visible;"/>
			</clipPath>
		</g>
	</g>
</g>
<g>
	<g>
		<defs>
			<path id="SVGID_3_" d="M66.4,21.6c-1.1,0-1.9,0.9-1.9,1.9h-7.3c-5.9,0-10.7,4.8-10.7,10.7v2.9c0,0.5,0.4,1,1,1h2c0.5,0,1-0.4,1-1
				h4.9c3.2,0,5.9-2.6,5.9-5.9c0-1.1-0.9-2-2-2s-2,0.9-2,2c0,1.1-0.9,1.9-2,1.9h-4.8c0.5-3.4,3.4-5.8,6.8-5.8h7.3
				c2.2,0,3.9-1.7,3.9-3.9C68.4,22.5,67.5,21.6,66.4,21.6z"/>
		</defs>
		<use xlink:href="#SVGID_3_"  style="overflow:visible;fill:#006735;"/>
		<clipPath id="SVGID_4_">
			<use xlink:href="#SVGID_3_"  style="overflow:visible;"/>
		</clipPath>
		<rect x="36.7" y="11.9" class="st1" width="41.4" height="36.1"/>
	</g>
	<g>
		<defs>
			<path id="SVGID_5_" d="M49.9,48.9c-1.1,0-2-0.9-2-2s0.9-2,2-2s2,0.9,2,2S51,48.9,49.9,48.9z M51.8,41.1h-6.1
				c-0.4,0-0.8-0.3-0.9-0.7c-0.6-1.7-2.4-6.3-6.4-7c-0.1,0-0.1,0-0.2,0c-0.5,0-1,0.4-1,1c-0.3,3.4,1.2,6.6,3.9,8.7
				c0,0-7.8,11.7-13.6,11.7h-4.9c-0.5,0-1,0.4-1,1v11.7c0,0.5,0.4,1,1,1h15c0.4,0,0.7-0.2,0.9-0.6c0.9-2,3.8-8.5,4.6-10.1
				c1-2,3.9-2.9,7.8-2.9h9.8c2.9,0,2.9-2,2.9-2s-4.7-6.3-5.8-7.8C56.3,43.3,54.8,41.1,51.8,41.1z"/>
		</defs>
		<use xlink:href="#SVGID_5_"  style="overflow:visible;fill:#006735;"/>
		<clipPath id="SVGID_6_">
			<use xlink:href="#SVGID_5_"  style="overflow:visible;"/>
		</clipPath>
		<rect x="11.9" y="23.6" class="st2" width="61.4" height="54.5"/>
	</g>
</g>
</svg>
