<?xml version="1.0" encoding="utf-8"?>
<!-- Generator: Adobe Illustrator 23.1.1, SVG Export Plug-In . SVG Version: 6.00 Build 0)  -->
<svg version="1.1" id="Layer_1" xmlns="http://www.w3.org/2000/svg" xmlns:xlink="http://www.w3.org/1999/xlink" x="0px" y="0px"
	 width="90px" height="90px" viewBox="0 0 90 90" style="enable-background:new 0 0 90 90;" xml:space="preserve">
<style type="text/css">
	.st0{fill:#006735;}
	.st1{clip-path:url(#SVGID_2_);fill:#006735;}
</style>
<g>
	<path class="st0" d="M45,3c23.2,0,42,18.8,42,42S68.2,87,45,87S3,68.2,3,45S21.8,3,45,3 M45,0C20.1,0,0,20.1,0,45s20.1,45,45,45
		s45-20.1,45-45S69.9,0,45,0L45,0z"/>
</g>
<g>
	<g>
		<defs>
			<path id="SVGID_1_" d="M50.9,49.7c-1.4,0-2.5-1.1-2.5-2.5c0-1.4,1.1-2.5,2.5-2.5s2.5,1.1,2.5,2.5C53.4,48.6,52.3,49.7,50.9,49.7
				L50.9,49.7z M48.4,55.3l-2.5,2.5c-0.2,0.2-0.6,0.4-0.9,0.4c-0.3,0-0.7-0.1-0.9-0.4l-2.5-2.5c-0.4-0.4-0.5-0.9-0.3-1.4
				c0.2-0.5,0.7-0.8,1.2-0.8h5c0.5,0,1,0.3,1.2,0.8C48.8,54.4,48.7,55,48.4,55.3L48.4,55.3z M39.1,49.7c-1.4,0-2.5-1.1-2.5-2.5
				c0-1.4,1.1-2.5,2.5-2.5s2.5,1.1,2.5,2.5C41.6,48.6,40.5,49.7,39.1,49.7z M61,50.2c0-1.6-0.2-3.2-0.5-4.8c-0.1-0.3,0-0.7,0.2-1
				c0.2-0.3,0.5-0.5,0.8-0.5c4.4-0.9,7.4-4.9,6.9-9.3c-0.4-4.4-4.2-7.8-8.6-7.8c-3.3,0-6.3,1.9-7.7,4.9c-0.3,0.6-1,0.9-1.6,0.6
				c-3.5-1.4-7.4-1.4-10.9,0c-0.6,0.2-1.2,0-1.5-0.6c-1.4-3-4.5-4.9-7.8-4.9c-4.4,0-8.1,3.4-8.6,7.8c-0.4,4.4,2.5,8.4,6.9,9.3
				c0.3,0.1,0.6,0.3,0.8,0.5c0.2,0.3,0.2,0.6,0.2,1c-0.4,1.6-0.5,3.2-0.5,4.8c0,8.8,5.2,13.1,16,13.1S61,59,61,50.2z"/>
		</defs>
		<use xlink:href="#SVGID_1_"  style="overflow:visible;fill:#006735;"/>
		<clipPath id="SVGID_2_">
			<use xlink:href="#SVGID_1_"  style="overflow:visible;"/>
		</clipPath>
		<rect x="9" y="14.2" class="st1" width="71.9" height="61.6"/>
	</g>
</g>
</svg>
